<?xml version="1.0" encoding="UTF-8" standalone="no"?>
<!-- Created with Inkscape (http://www.inkscape.org/) -->

<svg
   xmlns:dc="http://purl.org/dc/elements/1.1/"
   xmlns:cc="http://creativecommons.org/ns#"
   xmlns:rdf="http://www.w3.org/1999/02/22-rdf-syntax-ns#"
   xmlns:svg="http://www.w3.org/2000/svg"
   xmlns="http://www.w3.org/2000/svg"
   xmlns:sodipodi="http://sodipodi.sourceforge.net/DTD/sodipodi-0.dtd"
   xmlns:inkscape="http://www.inkscape.org/namespaces/inkscape"
   width="205.88831"
   height="76.455421"
   id="svg2"
   version="1.1"
   inkscape:version="0.48.2 r9819"
   sodipodi:docname="usm.svg"
   inkscape:export-filename="usm.png"
   inkscape:export-xdpi="308.59573"
   inkscape:export-ydpi="308.59573">
  <defs
     id="defs4" />
  <sodipodi:namedview
     id="base"
     pagecolor="#3a2826"
     bordercolor="#666666"
     borderopacity="1.0"
     inkscape:pageopacity="0"
     inkscape:pageshadow="2"
     inkscape:zoom="2.8"
     inkscape:cx="133.61535"
     inkscape:cy="45.33983"
     inkscape:document-units="px"
     inkscape:current-layer="layer1"
     showgrid="false"
     inkscape:window-width="1680"
     inkscape:window-height="944"
     inkscape:window-x="1280"
     inkscape:window-y="0"
     inkscape:window-maximized="0"
     fit-margin-top="1"
     fit-margin-right="1"
     fit-margin-bottom="1"
     fit-margin-left="1" />
  <metadata
     id="metadata7">
    <rdf:RDF>
      <cc:Work
         rdf:about="">
        <dc:format>image/svg+xml</dc:format>
        <dc:type
           rdf:resource="http://purl.org/dc/dcmitype/StillImage" />
        <dc:title />
      </cc:Work>
    </rdf:RDF>
  </metadata>
  <g
     inkscape:label="Layer 1"
     inkscape:groupmode="layer"
     id="layer1"
     transform="translate(-278.03729,-397.06241)">
    <path
       style="fill:none;stroke:#000000;stroke-width:0.30000001;stroke-linecap:butt;stroke-linejoin:miter;stroke-miterlimit:4;stroke-opacity:1;stroke-dasharray:none"
       d="m 378.00626,409.25215 c 31.70469,-7.13978 135.05407,-21.23115 75.61352,24.56491"
       id="path2994"
       inkscape:connector-curvature="0"
       sodipodi:nodetypes="cc" />
    <path
       inkscape:connector-curvature="0"
       id="path3783"
       d="m 375.54215,408.64247 c 43.1407,-12.94816 163.87931,-23.73858 75.7435,31.81981"
       style="fill:none;stroke:#000000;stroke-width:0.30000001;stroke-linecap:butt;stroke-linejoin:miter;stroke-miterlimit:4;stroke-opacity:1;stroke-dasharray:none"
       sodipodi:nodetypes="cc" />
    <path
       style="fill:none;stroke:#000000;stroke-width:0.30000001;stroke-linecap:butt;stroke-linejoin:miter;stroke-miterlimit:4;stroke-opacity:1;stroke-dasharray:none"
       d="m 399.76787,460.41279 c -65.36713,19.2288 -167.43277,17.9302 -96.46957,-23.73858"
       id="path3804"
       inkscape:connector-curvature="0"
       sodipodi:nodetypes="cc" />
    <path
       style="fill:none;stroke:#000000;stroke-width:0.30000001;stroke-linecap:butt;stroke-linejoin:miter;stroke-miterlimit:4;stroke-opacity:1;stroke-dasharray:none"
       d="M 398.75772,458.89756 C 347.2325,471.13143 255.82114,474.30239 302.79323,438.69451"
       id="path3806"
       inkscape:connector-curvature="0"
       sodipodi:nodetypes="cc" />
    <text
       xml:space="preserve"
       style="font-size:72px;font-style:normal;font-variant:normal;font-weight:bold;font-stretch:normal;line-height:125%;letter-spacing:0px;word-spacing:0px;fill:#000000;fill-opacity:1;stroke:none;font-family:Arial;-inkscape-font-specification:Arial Bold"
       x="295.4696"
       y="460.91788"
       id="text2990"
       sodipodi:linespacing="125%"><tspan
         sodipodi:role="line"
         id="tspan2992"
         x="295.4696"
         y="460.91788"
         style="font-style:italic;fill:#000000">USM</tspan></text>
    <path
       style="opacity:0.97000002;fill:#000000;fill-opacity:1;fill-rule:evenodd;stroke:#000000;stroke-width:0.07576144;stroke-miterlimit:4;stroke-opacity:1;stroke-dasharray:none"
       d="m 366.58467,461.38105 c -9.18619,-1.73174 -14.22793,-7.07441 -14.4126,-15.27284 l -0.0427,-1.89404 4.98206,-0.25254 4.98206,-0.25254 0.14109,1.13642 c 0.30486,2.45543 0.90285,4.43032 1.60507,5.30087 0.9409,1.16644 3.00316,2.17692 5.19854,2.54722 2.19546,0.37031 6.60163,0.16836 8.39698,-0.38486 2.85587,-0.88001 4.70521,-3.11137 4.70284,-5.67432 -0.003,-3.06682 -1.2164,-4.09649 -8.84261,-7.5027 -9.23209,-4.12346 -11.83421,-5.94871 -13.59267,-9.53456 -2.97484,-6.06624 -1.02451,-13.74049 4.4925,-17.67734 2.64148,-1.88493 4.80312,-2.63135 9.55426,-3.29915 1.44295,-0.20282 4.10088,-0.7735 5.90653,-1.26818 8.08369,-2.21465 21.37272,-4.80809 32.95623,-6.43162 20.41563,-2.86144 40.32984,-3.58394 52.4093,-1.90144 14.72821,2.05144 20.44876,7.24965 16.68949,15.16559 -0.50804,1.06981 -0.98588,1.88294 -1.06186,1.80697 -0.076,-0.076 0.17072,-0.74606 0.5482,-1.48907 2.02337,-3.98266 1.75563,-6.9383 -0.866,-9.55993 -7.0618,-7.0618 -32.40489,-8.48605 -67.08779,-3.77026 -10.71451,1.45684 -25.06667,4.21488 -33.03573,6.34843 l -3.07722,0.82387 1.26269,0.17035 c 0.94762,0.12784 2.33394,-0.0408 5.55584,-0.67604 12.81906,-2.52727 28.1177,-4.63264 42.42641,-5.83865 6.56893,-0.55366 23.90739,-0.6307 28.03173,-0.12456 6.6248,0.81301 11.34451,2.19891 14.09354,4.13845 1.16695,0.82332 0.58151,0.78429 -0.73216,-0.0488 -2.75468,-1.74697 -7.91608,-3.14278 -14.24526,-3.85239 -4.18254,-0.46893 -19.39967,-0.38058 -26.1377,0.15176 -13.31805,1.05219 -25.86598,2.70307 -39.77476,5.23301 -3.12516,0.56846 -5.79006,1.13557 -5.92202,1.26026 -0.14639,0.13833 -0.044,0.2267 0.26262,0.2267 1.0591,0 3.59448,0.8026 5.53313,1.75158 2.35959,1.15501 4.71962,3.18912 6.08265,5.24261 1.06468,1.60401 2.24523,4.81479 2.50222,6.80533 l 0.16768,1.29888 -3.49239,0.15605 c -1.92081,0.0858 -4.19977,0.21446 -5.06434,0.28586 -1.5538,0.12831 -1.57374,0.12171 -1.72705,-0.57105 -0.68365,-3.08941 -2.1636,-5.12993 -4.45911,-6.14814 -1.82263,-0.80845 -6.72381,-1.00733 -8.94091,-0.3628 -3.51084,1.02063 -5.13941,4.74046 -3.28743,7.50884 0.87089,1.30182 3.07415,2.60006 9.09237,5.35754 8.51406,3.90103 10.59462,5.27374 12.54686,8.27811 1.38927,2.13798 1.83822,4.09558 1.70302,7.42586 -0.17698,4.35986 -1.41794,7.11078 -4.67587,10.36532 -2.11151,2.10932 -5.15412,3.77204 -8.52892,4.66089 -2.67823,0.70539 -9.87108,0.89677 -12.81885,0.34107 l 0,0 z"
       id="path3784"
       inkscape:connector-curvature="0" />
    <path
       style="opacity:0.97000002;fill:#000000;fill-opacity:1;fill-rule:evenodd;stroke:#000000;stroke-width:0.07576144;stroke-miterlimit:4;stroke-opacity:1;stroke-dasharray:none"
       d="m 452.77581,438.83949 c 0.0193,-0.84066 0.94539,-4.89897 1.16081,-5.08689 0.12001,-0.10469 1.35461,-1.10198 2.74357,-2.21621 10.30011,-8.26278 15.85868,-15.78218 15.15172,-20.49657 -0.68977,-4.59967 -5.10655,-7.23655 -14.89918,-8.89501 -3.97564,-0.6733 -17.37134,-0.93919 -25.50635,-0.50628 -12.52609,0.6666 -28.60503,2.67779 -44.57298,5.57528 -6.60806,1.19908 -10.12061,1.59949 -8.5863,0.97879 1.80029,-0.7283 13.3165,-3.26593 21.59201,-4.75786 9.9108,-1.78673 21.65455,-3.31377 32.45115,-4.21962 7.71478,-0.64727 25.91414,-0.64769 30.68339,-7e-4 8.90814,1.20847 13.94681,2.86504 16.96314,5.57697 1.83881,1.65325 2.42791,3.03685 2.31733,5.44263 -0.0745,1.6218 -0.24762,2.24069 -1.15446,4.1283 -1.39271,2.89895 -2.80455,4.72651 -6.36472,8.23883 -4.3553,4.29676 -11.57051,9.88776 -19.02176,14.7398 -2.20043,1.43285 -2.96475,1.82015 -2.95737,1.49854 l 0,0 z"
       id="path3786"
       inkscape:connector-curvature="0" />
    <path
       style="opacity:0.97000002;fill:#000000;fill-opacity:1;fill-rule:evenodd;stroke:#000000;stroke-width:0.07576144;stroke-miterlimit:4;stroke-opacity:1;stroke-dasharray:none"
       d="m 367.28169,461.51095 c -5.73145,-0.86973 -10.77718,-3.76061 -12.98694,-7.44069 -1.12815,-1.87879 -1.9778,-4.86539 -2.19223,-7.70584 l -0.17185,-2.27652 1.48833,-0.0148 c 0.81858,-0.008 3.07932,-0.10586 5.02386,-0.21714 2.20132,-0.12598 3.59437,-0.11138 3.69146,0.0387 0.0858,0.13255 0.22321,0.88484 0.30546,1.67176 0.38666,3.69935 1.81497,5.64944 4.81697,6.57666 3.22745,0.99686 8.44735,0.87645 11.0067,-0.2539 4.25865,-1.88085 5.12309,-6.92359 1.60212,-9.34608 -0.65049,-0.44755 -3.80479,-2.048 -7.00956,-3.55655 -7.32757,-3.44924 -9.19869,-4.52136 -10.92117,-6.25763 -5.03924,-5.07959 -4.78294,-13.98567 0.5565,-19.33794 2.68207,-2.6885 5.25522,-3.83928 10.47246,-4.68354 1.7362,-0.28095 4.86136,-0.95546 6.9448,-1.4989 14.71051,-3.83707 33.43621,-6.87224 52.40166,-8.49358 6.53011,-0.55825 25.32829,-0.64578 29.67323,-0.13816 11.25465,1.31488 17.65302,3.82236 20.01764,7.84479 0.61414,1.0447 0.69049,1.42589 0.69049,3.44742 0,2.10367 -0.0702,2.41983 -0.94287,4.24749 -0.62103,1.30063 -1.0438,1.91226 -1.23857,1.79188 -0.18643,-0.11522 -0.228,-0.0732 -0.1125,0.11368 0.21343,0.34534 -1.10311,2.21676 -3.2205,4.57786 -1.87346,2.08908 -5.96296,5.80269 -6.31586,5.73533 -0.14771,-0.0282 -0.27374,0.0949 -0.28005,0.27362 -0.0145,0.40998 -0.66665,0.82663 -0.98546,0.62959 -0.13226,-0.0817 -0.1703,-0.0351 -0.0845,0.1037 0.27252,0.44094 -6.9625,5.92205 -13.01746,9.86178 -1.85636,1.20785 -2.91188,1.74247 -3.34613,1.6948 -0.3489,-0.0383 -0.63437,0.034 -0.63437,0.16067 0,0.12666 0.13126,0.2303 0.29168,0.2303 0.18854,0 0.15883,0.15627 -0.084,0.44194 -0.21338,0.251 -1.2209,4.53347 -2.332,9.91212 -1.07597,5.2086 -2.06532,9.89634 -2.19856,10.4172 l -0.24226,0.94702 -4.80551,0 c -4.45987,0 -4.79577,-0.0318 -4.67018,-0.44195 0.31422,-1.02614 9.96346,-41.85288 9.90547,-41.91087 -0.035,-0.035 -4.60211,9.47986 -10.1491,21.14415 l -10.08546,21.2078 -4.98762,5.1e-4 c -2.7432,2.3e-4 -4.98789,-0.028 -4.98821,-0.0627 -2.5e-4,-0.0347 -0.3978,-9.09768 -0.88331,-20.13991 -0.4855,-11.04223 -0.89196,-20.64499 -0.90324,-21.33947 -0.017,-1.04878 -0.058,-1.15574 -0.24183,-0.63135 -0.12173,0.34724 -1.93242,9.6659 -4.02376,20.70813 -2.09134,11.04223 -3.8669,20.38929 -3.94569,20.77126 l -0.14325,0.69448 -5.2201,-0.016 c -3.05899,-0.009 -5.00434,-0.10336 -4.69894,-0.227 0.45517,-0.18427 0.72322,-1.18142 2.11715,-7.8758 0.87779,-4.21573 3.26785,-15.67667 5.31124,-25.46884 l 3.71525,-17.80393 7.5634,-0.0668 7.5634,-0.0668 0.70782,16.86055 c 0.3893,9.2733 0.78197,17.32512 0.87261,17.89293 0.15989,1.00176 0.4229,0.50161 8.86469,-16.85692 l 8.69991,-17.8893 7.65674,0 7.65675,0 -0.14085,0.56821 c -0.33051,1.33337 -4.8875,23.28638 -4.84264,23.32914 0.13052,0.12443 5.68346,-4.56208 8.28787,-6.99472 2.97766,-2.78127 6.08278,-6.39984 7.46136,-8.69514 2.34571,-3.90555 2.50746,-7.49901 0.44773,-9.94686 -1.8867,-2.24222 -7.50362,-4.30376 -14.63236,-5.37043 -3.08809,-0.46206 -23.45322,-0.47008 -28.91561,-0.0114 -12.94842,1.08734 -29.91649,3.40421 -41.28999,5.63785 -3.74186,0.73486 -3.73864,0.73237 -1.62688,1.26108 4.07192,1.01948 7.91306,3.59381 9.95706,6.67323 1.12348,1.69258 2.33918,4.91543 2.55869,6.78312 l 0.15998,1.36121 -2.3677,0.15316 c -1.30223,0.0842 -3.60883,0.18115 -5.12578,0.21536 l -2.75808,0.0622 -0.35581,-1.38833 c -0.50369,-1.96534 -1.93603,-3.95288 -3.47482,-4.82169 -2.56904,-1.45051 -8.01714,-1.63253 -10.62813,-0.35509 -1.84107,0.90075 -2.87978,2.46906 -2.87978,4.3481 0,1.59799 0.40475,2.4862 1.61857,3.55195 1.29991,1.14134 2.54072,1.81531 8.38777,4.55596 6.37688,2.98899 8.63481,4.28137 10.4104,5.95865 2.50479,2.3661 3.57679,5.01348 3.57065,8.81794 -0.007,4.56196 -1.3276,7.76593 -4.53364,11.00228 -2.8801,2.90731 -6.42931,4.61297 -11.04209,5.30653 -2.02076,0.30383 -7.84767,0.3148 -9.80062,0.0184 l 0,10e-6 z M 482.4869,409.30077 c -0.0635,-0.24307 -0.1155,-0.0442 -0.1155,0.44194 0,0.48614 0.052,0.68501 0.1155,0.44195 0.0635,-0.24307 0.0635,-0.64082 0,-0.88389 l 0,0 z m -101.76281,-0.97332 c -0.0839,-0.0839 -0.30173,-0.0929 -0.48403,-0.0199 -0.20146,0.0806 -0.14162,0.14046 0.15257,0.15258 0.26622,0.011 0.41537,-0.0487 0.33146,-0.13264 l 0,0 z m 1.39422,-0.26722 c -0.17362,-0.07 -0.45773,-0.07 -0.63135,0 -0.17362,0.0701 -0.0316,0.12738 0.31568,0.12738 0.34724,0 0.48929,-0.0573 0.31567,-0.12738 z m 62.26055,-9.36298 c -0.79321,-0.05 -2.15692,-0.0504 -3.03046,-9.1e-4 -0.87355,0.0494 -0.22456,0.0903 1.4422,0.0908 1.66675,5e-4 2.38146,-0.04 1.58826,-0.0899 z m 10.7861,-0.0762 c -1.66675,-0.0957 -4.45098,-0.16678 -6.18718,-0.15791 l -3.15673,0.0161 2.90419,0.1518 c 1.59731,0.0835 4.38154,0.15454 6.18719,0.15791 l 3.28299,0.006 -3.03046,-0.17404 0,0 z"
       id="path3788"
       inkscape:connector-curvature="0" />
    <path
       style="opacity:0.97000002;fill:#000000;fill-opacity:1;fill-rule:evenodd;stroke:#000000;stroke-width:0.07576144;stroke-miterlimit:4;stroke-opacity:1;stroke-dasharray:none"
       d="m 366.81696,461.501 c -4.07022,-0.68315 -8.10453,-2.60646 -10.54835,-5.02882 -2.57521,-2.55259 -3.86583,-5.63837 -4.17039,-9.97112 l -0.16582,-2.35891 3.00269,-0.1636 c 1.65148,-0.09 3.9617,-0.18741 5.13383,-0.21652 l 2.13113,-0.0529 0.33555,2.13444 c 0.5996,3.81409 2.09543,5.56848 5.49363,6.44322 1.87133,0.4817 6.54478,0.5058 8.50734,0.0439 3.82879,-0.90119 6.09724,-3.8933 5.27283,-6.9549 -0.53953,-2.00366 -1.40851,-2.64308 -7.83155,-5.76262 -8.47368,-4.11551 -8.92989,-4.35785 -10.72795,-5.69879 -1.78386,-1.33035 -3.29058,-3.35972 -4.2148,-5.67683 -0.50025,-1.25417 -0.57659,-1.88876 -0.5692,-4.73144 0.007,-2.87052 0.0872,-3.48971 0.63435,-4.9283 0.81899,-2.15319 2.23458,-4.25703 3.82884,-5.69041 2.56411,-2.30536 4.8352,-3.26016 10.17863,-4.27927 1.93484,-0.36901 5.62026,-1.1796 8.18984,-1.80131 17.06821,-4.12963 32.69449,-6.6041 51.89659,-8.21801 5.25569,-0.44173 25.59911,-0.44574 29.29442,-0.006 13.60465,1.61979 20.32932,5.32978 20.32932,11.21564 0,2.17266 -0.64096,4.04315 -2.18553,6.37791 -2.74772,4.15343 -6.14608,7.58989 -12.65152,12.79335 -5.39366,4.31419 -14.44967,10.51045 -14.92866,10.21442 -0.11118,-0.0687 -0.21294,0.0121 -0.22612,0.17963 -0.0132,0.16751 -0.21478,0.98642 -0.448,1.81979 -0.23321,0.83338 -1.29322,5.60635 -2.35558,10.6066 l -1.93156,9.09138 -4.85987,0.0686 c -2.67293,0.0377 -4.85987,0.003 -4.85987,-0.0776 0,-0.0804 2.16805,-9.29797 4.8179,-20.48345 2.64984,-11.18549 4.77672,-20.37843 4.7264,-20.42875 -0.0942,-0.0942 -0.93259,1.6446 -12.76007,26.46343 l -6.95008,14.58408 -5.00313,0 -5.00312,0 -0.1347,-1.07329 c -0.0741,-0.59031 -0.50428,-10.0318 -0.956,-20.98109 -0.45172,-10.94929 -0.90428,-19.69974 -1.00569,-19.44544 -0.1534,0.38468 -3.91526,19.90341 -7.02485,36.44905 -0.43071,2.29179 -0.84211,4.36576 -0.9142,4.60882 -0.11934,0.40238 -0.59738,0.44195 -5.33936,0.44195 -4.40082,0 -5.13692,-0.0522 -4.74802,-0.33655 0.55094,-0.40286 0.38016,0.35883 6.47868,-28.89474 l 4.64609,-22.28649 7.6079,0 7.60791,0 0.16628,3.4724 c 0.0915,1.90982 0.44721,9.71351 0.79059,17.34155 0.34337,7.62803 0.67177,13.91663 0.72979,13.97464 0.058,0.058 0.29117,-0.17789 0.51811,-0.52425 0.41369,-0.63136 13.98224,-28.26735 15.79999,-32.1809 l 0.96771,-2.08344 7.71873,0 c 4.2453,0 7.71873,0.0547 7.71873,0.12153 0,0.0668 -1.08183,5.31611 -2.40406,11.66505 -1.32224,6.34893 -2.37343,11.62693 -2.33598,11.72888 0.13344,0.36333 5.6864,-4.48017 9.42556,-8.22132 6.63219,-6.6357 8.89342,-11.14741 7.55528,-15.07463 -0.9814,-2.88026 -5.02429,-5.11872 -11.79671,-6.53157 -4.62358,-0.96457 -6.70406,-1.06336 -19.91627,-0.94574 -13.50016,0.12019 -15.81428,0.27038 -28.3838,1.84219 -10.88429,1.36107 -27.30042,4.04176 -28.35078,4.62957 -0.21052,0.11781 0.16506,0.30363 1.00123,0.49536 0.73597,0.16875 2.41772,0.83028 3.73724,1.47006 4.29607,2.08299 7.25431,5.70913 8.44164,10.34755 0.21845,0.85343 0.39719,1.89557 0.39719,2.31588 0,0.7533 -0.0225,0.7663 -1.57836,0.91191 -0.8681,0.0813 -3.15814,0.17552 -5.08898,0.20951 l -3.51062,0.0618 -0.50655,-1.51523 c -1.41122,-4.22127 -3.84142,-5.73812 -9.15374,-5.71347 -3.10621,0.0144 -4.21122,0.26772 -5.62012,1.28832 -2.75614,1.99654 -2.69547,5.57933 0.1296,7.65312 0.69188,0.50788 4.28022,2.39341 7.97409,4.19006 3.69388,1.79665 7.33016,3.6742 8.08063,4.17234 2.08264,1.38237 3.65077,3.11789 4.66608,5.16414 0.86856,1.75051 0.92621,2.02059 1.02547,4.80474 0.16479,4.62175 -0.70084,7.27709 -3.43481,10.53636 -2.7883,3.32405 -6.65632,5.47478 -11.30379,6.28523 -2.36053,0.41164 -8.8971,0.48209 -11.05925,0.11919 l 0,0 z"
       id="path3790"
       inkscape:connector-curvature="0" />
    <path
       style="opacity:0.97000002;fill:#000000;fill-opacity:1;fill-rule:evenodd;stroke:#000000;stroke-width:0.07576144;stroke-miterlimit:4;stroke-opacity:1;stroke-dasharray:none"
       d="m 308.72923,471.84463 c -10.96816,-0.62734 -19.52751,-2.45415 -24.33491,-5.19376 -2.4254,-1.38217 -3.43913,-2.34539 -4.28244,-4.06906 -0.8908,-1.82073 -0.75585,-4.14218 0.37422,-6.43747 2.26877,-4.60809 9.25755,-10.80343 18.90147,-16.75558 1.50661,-0.92986 2.99498,-1.85701 3.3075,-2.06034 0.52696,-0.34284 0.56821,-0.33073 0.56821,0.16692 0,0.29512 -0.19888,0.69934 -0.44195,0.89827 -0.24306,0.19892 -1.4079,1.12886 -2.58851,2.06652 -4.85234,3.8538 -8.85263,8.55526 -10.08742,11.85553 -2.64285,7.06364 4.02693,12.03254 18.92625,14.09981 4.71672,0.65445 8.31363,0.9043 15.40483,1.07006 19.42518,0.45409 47.07684,-2.43677 69.1886,-7.23336 2.56581,-0.55659 4.6966,-1.01198 4.73509,-1.01198 0.19409,0 0.0311,0.71183 -0.24569,1.07289 -0.8631,1.12596 -21.87174,5.87094 -35.41847,7.99956 -19.57548,3.07593 -39.35934,4.36977 -54.00678,3.53199 l 0,0 z"
       id="path3792"
       inkscape:connector-curvature="0" />
    <path
       style="opacity:0.97000002;fill:#000000;fill-opacity:1;fill-rule:evenodd;stroke:#000000;stroke-width:0.07576144;stroke-miterlimit:4;stroke-opacity:1;stroke-dasharray:none"
       d="m 311.7233,472.08748 c 1.29267,-0.10137 0.56504,-0.1359 -2.0203,-0.0959 -2.61819,0.0405 -3.64056,-0.009 -2.90419,-0.1401 0.82728,-0.14754 0.44943,-0.18075 -1.38896,-0.12208 -1.72543,0.0551 -2.2454,0.0142 -1.6415,-0.12919 0.62352,-0.14799 0.25156,-0.18323 -1.26269,-0.11962 -1.22584,0.0515 -1.76745,0.0147 -1.26269,-0.0857 0.82675,-0.1645 0.78477,-0.18701 -0.64948,-0.34835 -0.84335,-0.0949 -1.92295,-0.13383 -2.39911,-0.0866 -0.47616,0.0472 -0.63847,0.0309 -0.36067,-0.0364 0.27779,-0.0673 -1.03222,-0.43833 -2.91113,-0.82458 -6.08967,-1.25187 -10.89979,-3.223 -13.15639,-5.39134 -2.93716,-2.82229 -2.81655,-6.81989 0.33156,-10.98954 0.56944,-0.75421 0.89056,-1.28182 0.71361,-1.17245 -0.20264,0.12523 -0.2839,0.0853 -0.21952,-0.10779 0.0562,-0.16865 0.19488,-0.2876 0.30814,-0.26434 0.11327,0.0232 1.19002,-0.91456 2.3928,-2.08404 1.97325,-1.91862 5.64558,-4.96365 7.80881,-6.4749 0.45304,-0.31651 0.75415,-0.68802 0.66913,-0.82558 -0.0859,-0.13895 0.0531,-0.21455 0.31271,-0.17009 0.27809,0.0476 0.4401,-0.0526 0.40015,-0.24764 -0.0369,-0.18021 0.0767,-0.29508 0.25254,-0.25525 0.45892,0.10395 5.01306,-2.83991 4.83615,-3.12615 -0.0813,-0.13148 0.0625,-0.20305 0.31953,-0.15904 0.28571,0.0489 0.43969,-0.0518 0.39626,-0.25932 -0.0391,-0.18664 0.0746,-0.28723 0.25254,-0.22353 0.45327,0.16225 1.25483,-0.29257 1.06291,-0.6031 -0.0907,-0.14679 0.0415,-0.22249 0.3086,-0.17674 0.26972,0.0462 0.44059,-0.0534 0.40415,-0.23564 -0.0747,-0.37335 0.17219,-0.39866 0.69068,-0.0708 0.31872,0.20152 0.8137,-1.8554 3.29776,-13.70406 l 2.92276,-13.94117 5.2254,-0.0683 c 2.87397,-0.0375 5.2254,-0.015 5.2254,0.0501 0,0.0651 -1.65868,8.05078 -3.68596,17.74593 -3.99043,19.08367 -4.0488,19.51464 -2.93572,21.67557 0.69804,1.35516 1.94351,2.50143 3.46495,3.18895 1.7397,0.78616 6.20467,0.96897 8.36034,0.34229 4.2458,-1.23428 6.23362,-3.59327 7.87639,-9.34704 0.39657,-1.38896 2.18989,-9.54237 3.98517,-18.11868 l 3.26415,-15.5933 5.24497,-9.3e-4 5.24498,-9.3e-4 -0.13173,0.56821 c -0.0725,0.31251 -1.49881,7.15945 -3.1697,15.21542 -3.26089,15.72199 -4.06188,19.0167 -5.6001,23.03492 -2.58918,6.7636 -7.36865,11.03079 -14.28875,12.75722 -1.85952,0.46391 -2.90194,0.54734 -6.74511,0.53979 -3.85207,-0.008 -4.85396,-0.0924 -6.56599,-0.5557 -3.26146,-0.88269 -5.5321,-2.13883 -7.56506,-4.18505 -3.92866,-3.95429 -5.09224,-9.01171 -3.695,-16.06009 0.62404,-3.14794 0.63196,-3.27027 0.17077,-2.63956 -0.19602,0.26808 -0.30296,0.57391 -0.23763,0.67961 0.0653,0.1057 -0.002,0.20639 -0.14866,0.22376 -0.5113,0.0603 -0.64808,0.10359 -0.96605,0.30542 -0.17588,0.11164 -0.25441,0.30877 -0.17449,0.43807 0.0799,0.1293 0.0249,0.2493 -0.12215,0.26666 -0.1471,0.0173 -0.37162,0.0458 -0.49894,0.0631 -0.29543,0.0403 -0.65239,0.39459 -0.65239,0.64753 0,0.36382 -3.00429,2.76116 -3.27077,2.60999 -0.14562,-0.0826 -0.18368,-0.0604 -0.0846,0.0494 0.0991,0.10979 -0.62246,1.06556 -1.60348,2.12392 -2.07454,2.23808 -3.52817,4.28723 -4.46998,6.30119 -0.96813,2.07026 -0.95981,4.7312 0.02,6.39797 0.92149,1.56755 2.66752,3.02638 5.04558,4.21565 1.07264,0.53643 1.90601,1.01956 1.85195,1.07363 -0.0541,0.0541 0.14792,0.11489 0.44887,0.13517 1.09139,0.0736 5.73751,1.5074 5.54402,1.71094 -0.10925,0.11493 0.0286,0.14194 0.30644,0.06 0.27779,-0.0819 1.75514,0.0567 3.283,0.30816 1.52785,0.25141 2.55063,0.51421 2.27284,0.584 -0.27779,0.0698 0.2336,0.0894 1.13642,0.0437 1.23093,-0.0624 1.48359,-0.024 1.01016,0.15332 -0.45764,0.17145 -0.14497,0.20686 1.13642,0.1287 1.05428,-0.0643 1.51295,-0.0284 1.13642,0.0891 -0.34724,0.10829 4.36891,0.21926 10.48033,0.24661 6.11142,0.0274 12.41856,0.0969 14.01587,0.15446 1.88801,0.0681 2.46237,0.0375 1.6415,-0.0875 -1.08532,-0.16523 -0.85472,-0.20668 1.64149,-0.29505 1.59731,-0.0565 3.98379,-0.0878 5.3033,-0.0694 1.74891,0.0243 2.15957,-0.0231 1.51523,-0.17519 -0.61217,-0.14447 -0.22402,-0.17832 1.26269,-0.11011 1.21236,0.0556 1.87181,0.0144 1.51523,-0.0948 -0.70514,-0.21586 3.99854,-0.66547 6.78182,-0.64825 1.02307,0.006 1.43501,-0.0638 1.13642,-0.19349 -0.28361,-0.12317 0.10876,-0.16938 0.99471,-0.11715 0.80468,0.0474 1.3427,0.0119 1.19558,-0.0791 -0.37959,-0.2346 5.61134,-0.81901 6.17572,-0.60244 0.34732,0.13328 0.41353,0.0938 0.25977,-0.15502 -0.16374,-0.26493 0.0206,-0.30345 0.89246,-0.18651 0.77624,0.10412 0.99147,0.0727 0.73314,-0.107 -0.2591,-0.18024 -0.006,-0.21991 0.86793,-0.13613 0.8388,0.0804 1.12169,0.04 0.88389,-0.12627 -0.2378,-0.16626 0.0451,-0.20667 0.88388,-0.12626 0.83879,0.0804 1.12168,0.04 0.88388,-0.12627 -0.2378,-0.16626 0.0451,-0.20668 0.88389,-0.12627 0.82571,0.0791 1.11797,0.0388 0.88388,-0.12203 -0.24013,-0.16498 -0.0201,-0.21436 0.70232,-0.15757 0.57862,0.0455 1.0121,0.0181 0.96329,-0.0609 -0.14313,-0.2316 4.11893,-0.8121 4.45184,-0.60635 0.20454,0.12641 0.23679,0.08 0.0992,-0.14268 -0.16152,-0.26135 0.0274,-0.29499 0.908,-0.1617 0.82407,0.12474 1.01388,0.0981 0.73315,-0.10272 -0.28278,-0.20233 -0.0907,-0.23546 0.75762,-0.13071 0.85248,0.10526 1.01022,0.0777 0.63134,-0.1105 -0.37888,-0.18815 -0.22114,-0.21576 0.63135,-0.1105 0.88409,0.10916 1.05231,0.0763 0.75761,-0.14804 -0.29737,-0.22637 -0.16163,-0.2617 0.63135,-0.16432 0.55558,0.0682 0.83969,0.0584 0.63134,-0.0218 -0.51448,-0.19812 4.28849,-1.09946 4.92449,-0.92414 0.42119,0.1161 0.44216,0.0914 0.12627,-0.14876 -0.29516,-0.22439 -0.15576,-0.25385 0.63135,-0.13344 0.75647,0.11573 0.91502,0.0864 0.63134,-0.11674 -0.28367,-0.20316 -0.12512,-0.23247 0.63135,-0.11675 0.77451,0.11849 0.92179,0.089 0.63135,-0.12627 -0.29167,-0.2162 -0.14644,-0.24897 0.63134,-0.14245 0.78978,0.10817 0.89997,0.0821 0.50508,-0.11961 -0.39489,-0.20169 -0.28471,-0.22778 0.50507,-0.11961 0.76039,0.10414 0.91649,0.0713 0.63135,-0.13293 -0.28515,-0.2042 -0.12904,-0.23707 0.63134,-0.13292 0.74253,0.10169 0.87634,0.0754 0.50508,-0.0992 -0.50077,-0.23548 -0.50066,-0.23766 0.0126,-0.25525 0.28473,-0.01 0.6708,0.1243 0.85791,0.29792 0.27668,0.25671 0.31338,0.23887 0.19651,-0.0955 -0.079,-0.22614 -0.0457,-0.51024 0.0742,-0.63134 0.20564,-0.20782 1.75141,-7.42426 7.85019,-36.64881 l 2.59554,-12.4375 7.62875,0 7.62874,0 0.16124,3.09359 c 0.0887,1.70147 0.3833,8.03702 0.65472,14.079 0.71607,15.94053 0.80388,17.42513 1.03059,17.42513 0.2126,0 0.81407,-1.20516 10.9651,-21.97082 l 6.11078,-12.50063 7.73681,-0.0668 c 4.25524,-0.0367 7.73681,0.0219 7.73681,0.13019 0,0.18924 -3.28832,16.21541 -4.28636,20.89028 -0.26605,1.24623 -0.43965,2.30995 -0.38577,2.36383 0.32268,0.32269 8.49813,-7.08388 11.44527,-10.36886 4.06124,-4.5268 5.66679,-7.53804 5.69662,-10.68413 0.0142,-1.49268 -0.0921,-1.96193 -0.66567,-2.94071 -0.37538,-0.64054 -1.0426,-1.46761 -1.48271,-1.83794 -1.86571,-1.5699 -5.75659,-3.03202 -10.84289,-4.07456 -2.93802,-0.60221 -3.75028,-0.65245 -12.61048,-0.77989 -14.19027,-0.20411 -21.78565,0.23038 -36.23922,2.07302 -9.80173,1.2496 -25.64805,3.86002 -26.57254,4.37739 -0.27444,0.15358 -0.0392,0.29648 0.8483,0.51533 0.67542,0.16654 2.30764,0.82399 3.62716,1.46099 4.26575,2.05932 7.24967,5.69639 8.44701,10.29598 0.2155,0.82784 0.39182,1.87085 0.39182,2.31781 0,0.7939 -0.0306,0.81594 -1.32583,0.95505 -0.7292,0.0783 -3.01232,0.17173 -5.07359,0.20758 l -3.74776,0.0652 -0.6015,-1.59045 c -1.65497,-4.37595 -4.13993,-5.78072 -9.82837,-5.5561 -2.00797,0.0793 -3.05455,0.24002 -3.75903,0.57729 -2.27165,1.08756 -3.49473,3.36546 -2.93103,5.45885 0.55306,2.05391 1.43257,2.66677 10.15211,7.07416 7.34684,3.71355 8.26568,4.24877 9.83407,5.72832 1.28056,1.208 1.97546,2.12858 2.67459,3.54318 l 0.94454,1.91114 -0.005,3.6749 c -0.004,3.17379 -0.0818,3.88017 -0.56781,5.18025 -1.56702,4.19185 -5.45272,7.99946 -9.92266,9.72325 -3.19316,1.23142 -5.97722,1.59553 -11.09646,1.45124 -5.18663,-0.14619 -6.9193,-0.53099 -10.6066,-2.3556 -5.16748,-2.55706 -7.85145,-6.74654 -8.25467,-12.88493 l -0.15181,-2.31121 2.37234,-0.15112 c 1.30478,-0.0831 3.61749,-0.18018 5.13936,-0.2157 l 2.76702,-0.0646 0.32376,1.9196 c 0.38275,2.26941 0.82497,3.41236 1.74189,4.50205 1.52364,1.81075 4.87932,2.71298 9.19409,2.47199 2.95002,-0.16476 4.37738,-0.51733 5.65766,-1.39748 2.15973,-1.48473 3.07316,-3.5145 2.60989,-5.79956 -0.37637,-1.8564 -1.31815,-2.51158 -9.39004,-6.53252 -8.09174,-4.03082 -10.12281,-5.35175 -11.66466,-7.58622 -1.94294,-2.81574 -2.22884,-3.80149 -2.22009,-7.65464 0.007,-3.01183 0.081,-3.60107 0.63608,-5.05457 0.82347,-2.15624 2.23922,-4.25893 3.83137,-5.69041 2.52779,-2.2727 4.7471,-3.21859 10.03471,-4.27688 1.8751,-0.37529 5.96622,-1.28725 9.09137,-2.02657 18.32875,-4.33606 38.34112,-7.32424 54.92705,-8.20153 6.05015,-0.32001 18.09434,-0.32394 22.72843,-0.007 9.44941,0.64544 17.09698,2.85296 20.508,5.91976 3.45913,3.11005 3.52475,7.19898 0.19583,12.20122 -2.58726,3.88777 -6.3188,7.63852 -12.49634,12.56065 -3.26294,2.59984 -9.56007,7.0864 -12.61433,8.98742 l -2.51163,1.56328 -0.753,3.18733 c -0.41415,1.75304 -1.4544,6.48296 -2.31167,10.51094 -0.85727,4.02799 -1.61065,7.40884 -1.67418,7.51301 -0.145,0.23776 -9.68215,0.25273 -9.68215,0.0152 0,-0.0958 2.11068,-9.141 4.69039,-20.10043 2.57972,-10.95943 4.64126,-19.97537 4.58121,-20.03543 -0.0993,-0.0993 -5.49066,11.0746 -15.55021,32.22884 l -3.78285,7.95495 -5.05838,0.0683 -5.05838,0.0683 -0.12723,-0.82593 c -0.07,-0.45427 -0.48502,-9.23546 -0.9223,-19.51376 -0.43729,-10.27831 -0.87051,-19.13518 -0.96273,-19.68195 -0.18951,-1.12374 0.21983,-3.09503 -4.8474,23.34375 -1.6638,8.681 -3.0871,15.98251 -3.16291,16.22557 -0.1254,0.40213 -0.60627,0.44195 -5.33698,0.44195 -5.02086,0 -5.18482,-0.0158 -4.7812,-0.46183 0.59043,-0.65242 0.52148,-0.9044 -0.0823,-0.30065 -0.27512,0.27512 -1.02324,0.63192 -1.66248,0.79288 -0.6771,0.17049 -1.03807,0.36942 -0.86475,0.47654 0.4175,0.25803 -0.74149,0.52077 -1.52586,0.34591 -0.50722,-0.11308 -0.55297,-0.0849 -0.24492,0.15071 0.29822,0.22813 0.19077,0.25639 -0.50508,0.13286 -0.68626,-0.12183 -0.79919,-0.0936 -0.50507,0.12627 0.29411,0.21987 0.18119,0.2481 -0.50508,0.12627 -0.68627,-0.12184 -0.79919,-0.0936 -0.50508,0.12626 0.29412,0.21987 0.18119,0.24811 -0.50507,0.12627 -0.68627,-0.12183 -0.79919,-0.0936 -0.50508,0.12627 0.29411,0.21987 0.18119,0.2481 -0.50508,0.12627 -0.68626,-0.12183 -0.79918,-0.0936 -0.50507,0.12627 0.29411,0.21987 0.18119,0.2481 -0.50508,0.12627 -0.69585,-0.12353 -0.8033,-0.0953 -0.50507,0.13285 0.30688,0.23475 0.25893,0.26167 -0.25254,0.14179 -0.8934,-0.2094 -4.49457,0.6441 -3.87449,0.91827 0.31219,0.13804 0.19587,0.16478 -0.35362,0.0813 -0.46896,-0.0712 -3.38251,0.40144 -6.81853,1.10622 -3.29983,0.67685 -7.53054,1.4934 -9.40157,1.81457 -2.52383,0.43322 -3.24084,0.63301 -2.77792,0.77405 0.37912,0.11551 0.0789,0.14757 -0.76499,0.0817 -1.04928,-0.0819 -1.23456,-0.051 -0.75762,0.12627 0.47302,0.17582 0.28303,0.20548 -0.75761,0.11828 -1.00295,-0.084 -1.2486,-0.0489 -0.88389,0.12625 0.36563,0.17565 0.1216,0.21151 -0.88388,0.12989 -1.04882,-0.0851 -1.23435,-0.055 -0.75761,0.12313 0.47011,0.17565 0.24439,0.20839 -0.88389,0.12823 -1.1208,-0.0796 -1.35088,-0.0468 -0.88388,0.12627 0.467,0.17303 0.23691,0.2059 -0.88389,0.12627 -1.12079,-0.0796 -1.35088,-0.0468 -0.88388,0.12627 0.467,0.17303 0.23692,0.2059 -0.88388,0.12626 -1.15078,-0.0818 -1.36338,-0.0494 -0.88389,0.13436 0.50699,0.19434 0.41478,0.21651 -0.46817,0.11257 -1.5678,-0.18458 -6.73515,0.43948 -5.71901,0.69067 0.50864,0.12574 0.34452,0.1476 -0.4994,0.0665 -1.80387,-0.1733 -8.17947,0.45943 -6.82421,0.67725 0.55559,0.0893 -0.18309,0.12689 -1.64149,0.0836 -2.01998,-0.06 -2.35086,-0.0297 -1.38896,0.12714 0.93103,0.15185 0.49989,0.18552 -1.6415,0.12819 -2.0472,-0.0548 -2.53159,-0.0199 -1.6415,0.1184 0.86199,0.13391 0.18081,0.17638 -2.14657,0.13384 -2.31163,-0.0423 -2.92143,-0.005 -1.89404,0.11692 0.8942,0.10578 -0.55488,0.15895 -3.53553,0.12974 -3.64428,-0.0357 -4.2772,-0.006 -2.27285,0.10741 1.57083,0.0887 -1.22742,0.15691 -6.43972,0.15691 -5.0697,0 -8.3085,-0.0713 -7.19734,-0.15842 l 0,0 z m 18.86446,-4.70186 c -1.29182,-0.0459 -3.33738,-0.0457 -4.54569,5e-4 -1.20831,0.0462 -0.15138,0.0838 2.34875,0.0835 2.50013,-2.6e-4 3.48875,-0.0381 2.19694,-0.084 l 0,-2e-5 z"
       id="path3794"
       inkscape:connector-curvature="0" />
    <path
       style="opacity:0.97000002;fill:#000000;fill-opacity:1;fill-rule:evenodd;stroke:#000000;stroke-width:0.07576144;stroke-miterlimit:4;stroke-opacity:1;stroke-dasharray:none"
       d="m 309.32419,472.22595 c -0.34724,-0.0388 -2.50551,-0.20952 -4.79616,-0.37938 -2.29065,-0.16985 -3.94332,-0.38653 -3.67259,-0.48149 0.27072,-0.095 -0.40778,-0.17846 -1.50777,-0.18555 -1.18967,-0.008 -2.03662,-0.12279 -2.0904,-0.28414 -0.0527,-0.15799 -0.42572,-0.21377 -0.89341,-0.13359 -0.63115,0.1082 -0.72193,0.0771 -0.42419,-0.1455 0.29321,-0.21918 0.15054,-0.25191 -0.63134,-0.14482 -0.78979,0.10817 -0.89997,0.0821 -0.50508,-0.11961 0.39489,-0.20169 0.2847,-0.22779 -0.50508,-0.11962 -0.64536,0.0884 -0.88713,0.0556 -0.6695,-0.0908 0.24417,-0.16422 0.0654,-0.28048 -0.63134,-0.41045 -4.77479,-0.89077 -10.89041,-3.93638 -12.21815,-6.0847 -0.29701,-0.48057 -0.64378,-0.80963 -0.7706,-0.73125 -0.12683,0.0784 -0.21276,-0.063 -0.19096,-0.3141 0.0218,-0.25114 0.0199,-0.6839 -0.004,-0.96169 -0.0368,-0.42405 -0.0843,-0.44431 -0.29614,-0.12627 -0.17764,0.26677 -0.2086,0.0427 -0.10466,-0.75761 0.29567,-2.27664 0.62653,-3.57108 1.21168,-4.74053 0.32862,-0.65676 0.54183,-1.35199 0.47381,-1.54494 -0.0731,-0.20723 -0.0114,-0.28146 0.15053,-0.18136 0.28173,0.17411 1.11937,-0.89608 1.21584,-1.55339 0.0685,-0.46672 1.11659,-1.59632 1.34828,-1.45313 0.0957,0.0591 0.6758,-0.40831 1.28911,-1.03879 0.61332,-0.63048 1.99304,-1.89101 3.06606,-2.80117 1.07301,-0.91017 1.8811,-1.76784 1.79575,-1.90595 -0.0854,-0.1381 0.003,-0.19604 0.19564,-0.12875 0.44132,0.1539 2.30112,-1.27671 2.09445,-1.61111 -0.084,-0.13599 0.004,-0.21125 0.19566,-0.16723 0.19167,0.044 0.39617,-0.0336 0.45445,-0.17251 0.17669,-0.42111 3.50503,-2.66059 3.85023,-2.59064 0.17711,0.0359 0.29181,-0.0822 0.25489,-0.26241 -0.0369,-0.18021 0.0977,-0.29385 0.29911,-0.25254 0.20144,0.0413 0.36724,-0.0206 0.36846,-0.13761 0.003,-0.24743 5.074,-3.43095 5.48286,-3.44178 0.2443,-0.006 2.02456,-7.97458 5.06559,-22.67258 l 0.95357,-4.60882 5.24985,0 c 2.95457,0 5.24986,0.0997 5.24986,0.22798 0,0.12539 -0.51748,2.71075 -1.14994,5.74524 -3.79701,18.21752 -5.7053,27.60779 -5.92437,29.15244 -0.59115,4.16811 1.49575,7.10427 5.67169,7.97982 4.13766,0.86751 8.24655,-0.053 10.81842,-2.42369 1.86752,-1.72141 3.05374,-4.42883 4.32535,-9.87214 0.65739,-2.81403 6.4619,-30.32939 6.4619,-30.6316 0,-0.0979 2.38648,-0.17805 5.3033,-0.17805 2.91681,0 5.3033,0.0732 5.3033,0.16269 0,0.28712 -5.30008,25.59736 -6.10032,29.13173 -1.16852,5.16094 -2.37976,8.93377 -3.81056,11.86929 -1.14376,2.34661 -1.57042,2.92886 -3.70886,5.06136 -2.03956,2.03388 -2.79061,2.59588 -4.81555,3.60337 -3.83974,1.91042 -5.57896,2.26544 -11.23794,2.29396 -4.27404,0.0215 -5.03219,-0.0396 -6.93989,-0.55959 -3.15931,-0.86115 -5.3856,-2.11521 -7.45479,-4.19923 -3.08282,-3.10494 -4.26248,-6.13414 -4.23382,-10.87182 0.01,-1.64553 0.21924,-3.83311 0.5134,-5.36644 0.47389,-2.47021 0.50937,-3.13446 0.11362,-2.12713 -0.0997,0.25377 -1.55011,1.60575 -3.22315,3.00441 -4.46919,3.73624 -7.82333,7.77968 -9.0658,10.92888 -0.56007,1.41958 -0.58459,3.85612 -0.0516,5.12866 0.53554,1.27864 1.14828,2.02672 2.60958,3.18602 3.51453,2.7882 9.49363,4.57377 19.14616,5.71772 7.08014,0.83909 27.38044,0.74945 37.12311,-0.16392 1.38896,-0.13021 3.88908,-0.3531 5.55584,-0.49532 10.55061,-0.90021 25.32701,-3.10862 36.49176,-5.45389 3.12516,-0.65647 5.9926,-1.2011 6.3721,-1.2103 0.85877,-0.0208 0.99817,-0.34578 1.84864,-4.30986 1.10209,-5.13687 9.45693,-45.07537 9.45693,-45.2068 0,-0.0681 3.45547,-0.12379 7.67884,-0.12379 l 7.67885,0 0.1534,2.33597 c 0.0844,1.28479 0.32308,6.14299 0.53047,10.79601 0.77332,17.35084 0.9218,20.09189 1.12168,20.70813 0.17561,0.54136 1.05485,-1.09634 6.16902,-11.49049 3.28032,-6.66701 7.07177,-14.41735 8.42544,-17.22299 l 2.46121,-5.10116 7.79421,-0.0127 7.79421,-0.0127 -0.11466,0.69448 c -0.0631,0.38196 -1.11011,5.56026 -2.32675,11.50733 -1.21664,5.94707 -2.14754,10.8774 -2.06866,10.95628 0.2047,0.2047 3.94524,-2.99595 7.53251,-6.44531 4.08091,-3.92401 6.80662,-7.24178 8.11296,-9.87519 0.90887,-1.83217 1.06761,-2.39644 1.14349,-4.06485 0.0712,-1.56626 -0.01,-2.12924 -0.42299,-2.93918 -1.40645,-2.75686 -4.88161,-4.561 -11.66068,-6.0537 -4.69934,-1.03475 -17.26398,-1.32172 -30.93593,-0.70656 -9.76241,0.43926 -35.00255,3.78933 -43.65164,5.79379 -1.7788,0.41224 -1.91553,0.51419 -0.99623,0.74279 4.6702,1.16131 9.26517,4.71753 11.08652,8.58027 0.92727,1.96657 1.61528,4.35353 1.61528,5.60403 0,0.74133 -0.0788,0.82021 -0.94702,0.94776 -0.52086,0.0765 -2.82577,0.21285 -5.12201,0.30296 l -4.175,0.16383 -0.42849,-1.35934 c -0.55125,-1.74875 -1.67075,-3.50582 -2.76592,-4.34115 -1.59954,-1.22003 -2.81353,-1.50927 -6.40435,-1.52588 -3.03557,-0.014 -3.3996,0.0352 -4.51876,0.61114 -1.83121,0.94237 -2.73345,2.20093 -2.84901,3.97415 -0.12252,1.88007 0.43243,2.90648 2.23764,4.13862 0.74833,0.51077 4.54259,2.55926 8.43167,4.5522 3.88909,1.99294 7.35518,3.82111 7.70242,4.0626 1.45995,1.01535 3.31393,3.13971 4.20879,4.82259 0.93274,1.7541 0.96092,1.8844 1.05149,4.86171 0.11138,3.66135 -0.18444,5.28302 -1.41094,7.73465 -0.65644,1.31214 -1.48217,2.38969 -2.94876,3.84803 -4.24578,4.22187 -8.32362,5.66121 -16.08811,5.67853 -4.50925,0.0101 -7.12807,-0.38939 -9.97986,-1.52225 -6.58497,-2.61583 -9.7527,-7.14871 -10.25682,-14.67707 l -0.0961,-1.43466 1.78709,-0.14221 c 0.98291,-0.0782 3.31451,-0.17129 5.18134,-0.20684 l 3.39424,-0.0646 0.45567,2.24844 c 0.77462,3.82232 2.02675,5.27772 5.25649,6.10987 1.9821,0.51069 6.56861,0.58204 8.62574,0.13419 1.78649,-0.38894 3.46761,-1.48506 4.4114,-2.87632 0.62049,-0.91468 0.72619,-1.3159 0.72619,-2.7566 0,-2.87056 -0.438,-3.21929 -10.1292,-8.06471 -3.88495,-1.94241 -7.30161,-3.83278 -8.317,-4.60163 -1.89731,-1.43665 -3.35392,-3.34108 -4.1851,-5.47179 -0.65977,-1.69131 -0.91551,-5.72031 -0.50495,-7.95496 0.88138,-4.79723 4.92824,-9.17381 10.00426,-10.81938 1.14175,-0.37013 8.2236,-1.98792 20.70813,-4.7306 14.38596,-3.1604 33.19112,-5.77827 46.97209,-6.53902 5.67499,-0.31327 19.61991,-0.31964 23.99113,-0.011 11.72116,0.82771 20.15447,4.12942 22.10021,8.65242 0.80513,1.87158 0.63082,4.71809 -0.42914,7.00782 -2.7492,5.93883 -11.82934,14.3074 -24.72898,22.7911 l -4.32059,2.84152 -0.89903,3.91434 c -0.49447,2.15289 -1.55458,6.95427 -2.3558,10.66974 l -1.45678,6.7554 -4.87722,0 c -3.04827,0 -4.87722,-0.0937 -4.87722,-0.24987 0,-0.13742 0.91642,-4.1433 2.03648,-8.90197 3.83823,-16.30694 7.05075,-30.33244 6.96681,-30.41637 -0.10101,-0.10102 -4.32475,8.6036 -12.76637,26.30995 l -6.26076,13.13199 -5.08349,0.0683 -5.08348,0.0683 -0.1181,-0.57343 c -0.065,-0.31538 -0.18308,-2.16441 -0.2625,-4.10895 -0.34974,-8.56264 -1.404,-31.02643 -1.55854,-33.20876 -0.0934,-1.31952 -0.23002,-2.22865 -0.30349,-2.02031 -0.0735,0.20834 -1.84689,9.2429 -3.94091,20.07678 l -3.80731,19.69798 -5.25659,0.0683 c -4.01493,0.0522 -5.21271,-0.003 -5.0708,-0.23232 0.13237,-0.21418 0.0468,-0.24374 -0.29757,-0.1028 -0.26585,0.10881 -0.69185,0.25754 -0.94666,0.33049 -0.36795,0.10536 -0.39393,0.18192 -0.12626,0.37207 0.24196,0.17188 0.18017,0.20518 -0.21909,0.11804 -0.30585,-0.0667 -0.58996,-0.0217 -0.63134,0.10019 -0.11333,0.33373 -8.20293,2.26498 -8.69559,2.07593 -0.31082,-0.11928 -0.37153,-0.0733 -0.22225,0.16819 0.15892,0.25715 0.0493,0.29311 -0.48481,0.15906 -0.50016,-0.12553 -0.63921,-0.0908 -0.50508,0.12627 0.13414,0.21704 -0.005,0.2518 -0.50507,0.12627 -0.39841,-0.1 -0.62979,-0.0755 -0.54734,0.0579 0.17297,0.27987 -1.78487,0.6281 -2.17516,0.38688 -0.17084,-0.10558 -0.20369,-0.0533 -0.0861,0.13694 0.14281,0.23107 -0.0518,0.26752 -0.78173,0.1464 -0.74536,-0.12369 -0.88359,-0.0958 -0.59307,0.11953 0.29167,0.21621 0.14644,0.24898 -0.63134,0.14245 -0.78229,-0.10714 -0.89622,-0.081 -0.50508,0.11604 0.38727,0.19506 0.24002,0.22534 -0.63134,0.12984 -0.86267,-0.0945 -1.01476,-0.0641 -0.63135,0.12627 0.38341,0.1904 0.23132,0.22082 -0.63135,0.12627 -0.87323,-0.0957 -1.01944,-0.0654 -0.63134,0.13063 0.42633,0.21539 0.38696,0.23715 -0.25254,0.13955 -1.10295,-0.16832 -4.11256,0.40055 -3.50263,0.66207 0.28509,0.12223 0.0219,0.1531 -0.66425,0.0779 -0.85244,-0.0934 -1.01021,-0.0629 -0.63134,0.12223 0.37291,0.1822 0.17466,0.21449 -0.75762,0.1234 -0.95199,-0.093 -1.13841,-0.061 -0.75761,0.13031 0.38652,0.19414 0.23832,0.22445 -0.63135,0.12914 -0.86267,-0.0945 -1.01475,-0.0641 -0.63134,0.12627 0.38341,0.1904 0.23132,0.22081 -0.63135,0.12627 -0.85244,-0.0934 -1.01021,-0.0629 -0.63134,0.12222 0.37291,0.18221 0.17466,0.21449 -0.75762,0.12341 -0.96671,-0.0945 -1.1443,-0.0626 -0.75761,0.13579 0.40669,0.20869 0.3195,0.23659 -0.4476,0.14324 -0.52397,-0.0638 -0.89799,-0.0274 -0.83115,0.0807 0.17933,0.29017 -11.0741,1.92288 -12.98966,1.88461 -1.15607,-0.0231 -1.49213,0.0344 -1.13642,0.19426 0.33691,0.15146 0.0563,0.17996 -0.84284,0.0856 -0.77958,-0.0818 -1.28826,-0.0449 -1.20644,0.0875 0.18632,0.30147 -2.44012,0.56737 -4.16504,0.42166 -1.05657,-0.0893 -1.22031,-0.0604 -0.73048,0.12886 0.46695,0.18038 0.20391,0.21038 -1.01015,0.11521 -0.97815,-0.0767 -1.50784,-0.0394 -1.31076,0.0924 0.32183,0.21512 -2.99806,0.51641 -11.69495,1.06132 -3.34494,0.20958 -19.42696,0.28701 -21.08694,0.10153 l 0,0 z"
       id="path3796"
       inkscape:connector-curvature="0" />
    <path
       style="opacity:0.97000002;fill:#000000;fill-opacity:1;fill-rule:evenodd;stroke:#000000;stroke-width:0.07576144;stroke-miterlimit:4;stroke-opacity:1;stroke-dasharray:none"
       d="m 307.80896,472.19912 c -6.07749,-0.45357 -12.17279,-1.30795 -11.94624,-1.67451 0.0887,-0.14358 0.0264,-0.17131 -0.14584,-0.0649 -0.4318,0.26687 -2.33891,-0.0974 -2.1458,-0.40981 0.10316,-0.16691 -0.14019,-0.19799 -0.69341,-0.0886 -0.661,0.13075 -0.7673,0.10502 -0.47353,-0.11459 0.29411,-0.21987 0.18119,-0.2481 -0.50508,-0.12627 -0.69374,0.12316 -0.8024,0.0949 -0.50508,-0.13137 0.30178,-0.22966 0.23328,-0.2564 -0.33683,-0.13147 -0.50419,0.11048 -0.66273,0.0712 -0.53658,-0.1329 0.12173,-0.19697 0.019,-0.2389 -0.32105,-0.13099 -0.27506,0.0873 -0.77227,0.0499 -1.10491,-0.0832 -0.33603,-0.13442 -0.43647,-0.25298 -0.22601,-0.26679 0.20835,-0.0137 -0.57281,-0.42412 -1.73589,-0.91213 -1.16309,-0.488 -2.73532,-1.28428 -3.49385,-1.7695 -0.75852,-0.48523 -1.29685,-0.74908 -1.19627,-0.58635 0.10815,0.175 0.0576,0.25412 -0.12377,0.19367 -0.16864,-0.0562 -0.26969,-0.17544 -0.22455,-0.26495 0.13508,-0.26785 -1.10861,-1.4624 -1.36049,-1.30673 -0.12799,0.0791 -0.1967,-0.013 -0.15269,-0.20465 0.044,-0.19167 -0.0144,-0.34512 -0.12984,-0.34102 -0.36193,0.0129 -0.91114,-1.23289 -0.76217,-1.72879 0.0798,-0.2656 0.0374,-0.40876 -0.0965,-0.326 -0.14241,0.088 -0.23207,-0.61541 -0.22217,-1.743 0.009,-1.03982 0.0868,-1.69051 0.17256,-1.44598 0.11098,0.31638 0.21795,0.15449 0.37089,-0.56135 0.11822,-0.55327 0.23265,-1.17641 0.25431,-1.38475 0.0217,-0.20834 0.0562,-0.52757 0.0768,-0.70939 0.0206,-0.18206 0.16837,-0.24962 0.32894,-0.15038 0.17902,0.11064 0.22308,0.0694 0.11413,-0.10689 -0.1764,-0.28542 0.95111,-2.19007 1.29647,-2.19007 0.0994,0 0.20174,-0.14268 0.22734,-0.31707 0.0676,-0.46028 2.37476,-2.9652 2.73553,-2.96994 0.35966,-0.005 3.795,-3.10042 3.795,-3.41979 0,-0.21138 2.12309,-1.87949 2.39212,-1.87949 0.0733,0 0.11328,-0.06 0.0889,-0.13321 -0.0668,-0.20039 4.79329,-3.55739 8.44038,-5.83003 1.77143,-1.10384 3.37196,-2.22371 3.55674,-2.48859 0.27776,-0.39818 2.73535,-11.44385 5.35374,-24.06246 l 0.56332,-2.71478 5.27038,0 c 4.29335,0 5.27039,0.0641 5.27039,0.34586 0,0.19023 -1.14325,5.84393 -2.54056,12.56378 -4.9158,23.64082 -5.01191,24.26568 -4.05613,26.36981 1.81978,4.00618 8.53888,5.34249 13.84774,2.75407 2.10131,-1.02452 3.199,-2.20506 4.34433,-4.67221 1.19989,-2.58469 1.79297,-4.9951 5.18489,-21.0726 1.7582,-8.33376 3.2599,-15.40799 3.33713,-15.7205 0.14001,-0.56665 0.15496,-0.56821 5.41632,-0.56821 3.33378,0 5.27593,0.0926 5.27593,0.25145 0,0.32125 -4.49024,21.86722 -5.84212,28.03282 -1.2257,5.59017 -2.82262,10.58717 -4.29535,13.44089 -0.83905,1.62582 -1.61552,2.63007 -3.49492,4.52016 -2.15741,2.16969 -2.69955,2.5664 -5.06164,3.70375 -3.99894,1.92551 -5.28333,2.17843 -11.10547,2.18685 -5.64103,0.008 -6.87211,-0.21876 -10.29909,-1.8984 -3.74156,-1.83382 -6.46513,-5.002 -7.69188,-8.94754 -0.6367,-2.04778 -0.74341,-6.41005 -0.22548,-9.21764 0.16655,-0.90282 0.36696,-1.98243 0.44537,-2.39911 0.1232,-0.65475 0.0964,-0.70422 -0.19769,-0.36438 -0.18714,0.21629 -1.48675,1.37703 -2.88802,2.57943 -6.36436,5.4611 -9.67913,10.09057 -9.69433,13.53928 -0.01,2.24624 0.43289,3.2741 2.13405,4.95379 2.92419,2.88729 8.1398,4.79012 16.61847,6.06297 3.43931,0.51633 6.03868,0.7074 12.42994,0.91372 18.00334,0.58115 36.17137,-0.75659 57.45243,-4.23032 7.46697,-1.21885 19.25346,-3.59859 19.62456,-3.96229 0.45864,-0.44949 0.70121,-1.53274 5.75047,-25.67939 2.57041,-12.29229 4.73326,-22.60532 4.80632,-22.91783 l 0.13285,-0.56821 7.6775,0 7.6775,0 0.14366,1.57836 c 0.079,0.8681 0.43002,7.99914 0.78001,15.84677 0.68762,15.4183 0.76821,16.51653 1.19272,16.25417 0.24736,-0.15288 11.52499,-22.81342 15.2218,-30.58571 l 1.47143,-3.09359 7.78789,0 c 6.22429,0 7.78788,0.0659 7.78788,0.32851 0,0.18068 -0.9531,5.03888 -2.11801,10.796 -2.51063,12.4079 -2.41048,11.85646 -2.15323,11.85646 0.31094,0 2.87292,-2.18672 6.46568,-5.51864 7.21014,-6.68667 10.42322,-11.65501 10.13292,-15.66839 -0.13193,-1.82402 -0.9443,-3.17334 -2.67155,-4.43737 -2.74872,-2.01156 -8.82657,-3.7574 -14.63959,-4.20517 -5.12519,-0.39479 -26.38958,-0.13973 -31.80439,0.38149 -11.79697,1.13554 -32.03731,4.05011 -37.44531,5.39205 l -1.62877,0.40417 1.3553,0.46068 c 5.91408,2.01026 10.11005,6.21551 11.48108,11.50647 0.58292,2.2496 0.53217,3.26366 -0.1718,3.43235 -0.31252,0.0749 -2.64218,0.21653 -5.17703,0.31478 -3.84897,0.14919 -4.60886,0.12084 -4.60902,-0.17191 -2.6e-4,-0.53658 -1.4182,-3.41402 -2.16434,-4.39226 -0.3651,-0.47867 -1.30591,-1.18562 -2.09069,-1.57102 -1.31136,-0.64399 -1.70886,-0.70781 -4.90986,-0.78831 -3.35781,-0.0844 -3.53299,-0.0631 -4.87424,0.59309 -2.87928,1.4087 -3.74514,4.64452 -1.8273,6.82881 0.88371,1.0065 3.07161,2.27041 10.86116,6.27431 6.50359,3.3429 7.92908,4.31035 9.59661,6.51301 1.80692,2.38679 2.22739,3.73887 2.22739,7.16253 0,1.57811 -0.1261,3.47151 -0.28023,4.20755 -0.80002,3.82069 -4.55191,8.27379 -8.73228,10.36429 -3.56575,1.78316 -5.262,2.08564 -11.69562,2.08564 -6.18757,0 -7.62366,-0.27189 -11.53867,-2.18457 -5.31516,-2.59673 -7.81758,-6.64962 -8.5028,-13.77101 l -0.15019,-1.5609 1.32013,-0.13737 c 0.72607,-0.0756 3.08219,-0.20772 5.23583,-0.2937 l 3.9157,-0.15631 0.45435,2.20732 c 0.53885,2.61778 1.0975,3.80314 2.28293,4.84396 1.56418,1.37336 3.05834,1.70867 7.61406,1.70867 3.68276,0 4.15245,-0.0515 5.30331,-0.58115 1.4156,-0.65152 2.75536,-1.8301 3.33136,-2.93058 0.51626,-0.98634 0.51576,-3.35476 -10e-4,-4.35255 -0.55469,-1.0712 -2.46604,-2.23345 -9.43658,-5.73817 -6.77149,-3.40469 -9.31175,-5.01645 -10.7259,-6.80548 -2.05634,-2.60147 -2.73958,-4.71311 -2.73958,-8.46706 0,-4.09665 1.23993,-7.091 4.1592,-10.04418 3.16632,-3.2031 3.43994,-3.29748 20.71581,-7.14542 17.39147,-3.87369 28.35137,-5.63795 45.9186,-7.39169 4.98551,-0.49771 7.06612,-0.55995 18.9837,-0.56789 12.64252,-0.008 13.58052,0.0223 16.92005,0.55409 9.79623,1.56 15.63522,4.32822 17.30199,8.20273 0.81763,1.90062 0.64254,4.76392 -0.42922,7.01929 -2.90783,6.1191 -11.76484,14.2724 -25.08195,23.08912 -2.22141,1.4707 -4.03892,2.73578 -4.03892,2.81129 0,0.0755 -0.89837,4.1915 -1.99638,9.14666 -1.09802,4.95515 -2.12885,9.66281 -2.29075,10.46146 l -0.29436,1.4521 -4.90659,0 c -3.7798,0 -4.90659,-0.0731 -4.90659,-0.31846 0,-0.17515 0.91796,-4.23786 2.03992,-9.02824 3.53408,-15.08934 6.7874,-29.38733 6.70536,-29.46937 -0.0988,-0.0988 -6.06309,12.14341 -13.25115,27.19931 l -5.48585,11.49049 -5.11158,0.0684 c -3.95834,0.053 -5.13551,-0.004 -5.21764,-0.25254 -0.0583,-0.17651 -0.5162,-9.06785 -1.01747,-19.75854 -0.50128,-10.69069 -0.94863,-19.47484 -0.99412,-19.52033 -0.13235,-0.13236 -0.19053,0.15594 -4.06348,20.13585 -2.0319,10.48225 -3.75372,19.15467 -3.82628,19.27206 -0.0725,0.11739 -2.59246,0.19833 -5.5998,0.17986 -6.43901,-0.0395 -6.2305,-0.0456 -6.01152,0.17343 0.25556,0.25555 -1.2443,0.70486 -7.07423,2.1192 -7.7874,1.88923 -13.24476,2.9913 -14.10043,2.84747 -0.60489,-0.10168 -0.68125,-0.0694 -0.3788,0.16028 0.29662,0.22523 0.19389,0.25105 -0.47354,0.11903 -0.52446,-0.10374 -0.79446,-0.075 -0.70189,0.0749 0.0848,0.13725 -0.53477,0.36079 -1.4205,0.51248 -0.86402,0.14798 -3.8438,0.67537 -6.62172,1.17197 -9.29372,1.66142 -23.46711,3.28033 -34.39856,3.92908 -3.92589,0.23299 -20.76168,0.29366 -23.55894,0.0849 l 0,0 z"
       id="path3798"
       inkscape:connector-curvature="0" />
    <path
       style="opacity:0.97000002;fill:#000000;fill-opacity:1;fill-rule:evenodd;stroke:#000000;stroke-width:0.07576144;stroke-miterlimit:4;stroke-opacity:1;stroke-dasharray:none"
       d="m 307.30389,472.22074 c -0.48614,-0.0548 -2.19077,-0.22255 -3.78808,-0.37279 -3.21374,-0.30227 -7.82866,-1.03281 -10.35406,-1.63904 -3.13246,-0.75196 -5.82423,-1.64739 -5.67552,-1.888 0.0822,-0.13304 7.3e-4,-0.25871 -0.18109,-0.27928 -0.18181,-0.0206 -0.50104,-0.0606 -0.70938,-0.0889 -0.20834,-0.0283 -0.52757,-0.0683 -0.70938,-0.0889 -0.18182,-0.0206 -0.2654,-0.14285 -0.18574,-0.27175 0.16055,-0.25978 -0.8045,-0.66013 -1.33993,-0.55588 -0.18756,0.0365 -0.26961,-0.0491 -0.18233,-0.19036 0.17898,-0.28959 -0.59719,-0.77058 -1.00461,-0.62254 -0.41589,0.15112 -2.32524,-1.6116 -3.00513,-2.77435 -0.33835,-0.57865 -0.72937,-1.56245 -0.86893,-2.18622 -0.29617,-1.32375 -0.0893,-3.51375 0.28226,-2.98802 0.15768,0.2231 0.18402,0.0964 0.0793,-0.38156 -0.11476,-0.52369 -0.0749,-0.66498 0.14875,-0.52678 0.21206,0.13106 0.25462,0.0561 0.13907,-0.24506 -0.24522,-0.63903 0.81767,-2.55252 2.6903,-4.84326 1.50933,-1.84632 3.10999,-3.32468 3.47699,-3.21133 0.0836,0.0258 0.53202,-0.3452 0.99655,-0.82447 0.46453,-0.47927 0.75126,-0.8714 0.63718,-0.8714 -0.52521,0 4.79482,-3.94792 9.76875,-7.24924 3.02144,-2.0054 5.59433,-3.8369 5.71753,-4.06999 0.12321,-0.23309 0.57307,-1.95797 0.9997,-3.83306 0.70315,-3.09046 4.83556,-22.44141 4.83556,-22.64362 0,-0.0466 2.38649,-0.0848 5.3033,-0.0848 4.56089,0 5.30331,0.0534 5.30331,0.38126 0,0.2097 -1.24244,6.43161 -2.76097,13.82647 -4.12161,20.07124 -4.12833,20.10727 -4.15712,22.28403 -0.0227,1.71816 0.0682,2.19026 0.60794,3.15672 1.25554,2.24819 4.11322,3.53991 7.80808,3.52936 6.17683,-0.0176 9.2378,-2.49441 11.22805,-9.0852 0.62079,-2.05577 2.48773,-10.52909 5.73116,-26.01142 0.82928,-3.95854 1.56902,-7.39621 1.64386,-7.63928 0.12393,-0.40249 0.60801,-0.44194 5.42237,-0.44194 4.26243,0 5.28628,0.0659 5.28628,0.34 0,0.56442 -5.96843,28.87978 -6.68867,31.73234 -1.72783,6.84316 -3.56423,10.729 -6.5334,13.82479 -2.83847,2.95952 -5.98399,4.80217 -9.89976,5.79929 -1.39781,0.35595 -2.80257,0.44588 -6.93021,0.4437 l -5.17703,-0.003 -2.52538,-0.88572 c -3.01819,-1.05855 -4.90749,-2.2592 -6.84054,-4.34711 -3.56494,-3.85057 -4.53508,-8.52391 -3.27442,-15.77346 0.2948,-1.69524 0.28764,-1.82288 -0.0848,-1.51385 -9.88408,8.2 -13.3712,13.38781 -12.05116,17.92859 0.3338,1.14822 0.68432,1.64861 2.0492,2.92539 3.3313,3.11627 8.44517,4.83653 18.56027,6.24353 3.94369,0.54856 24.45298,0.79322 31.78767,0.37921 16.99747,-0.95946 38.55486,-3.93904 53.37701,-7.37759 l 2.20591,-0.51174 0.38958,-1.30567 c 0.21426,-0.71811 2.55445,-11.6471 5.20041,-24.28664 2.64596,-12.63953 4.85528,-23.12302 4.9096,-23.29664 0.0762,-0.24347 1.85877,-0.31567 7.79363,-0.31567 l 7.69486,0 0.13424,1.07328 c 0.0738,0.59031 0.4214,7.38043 0.77237,15.08916 0.68377,15.01846 0.83958,17.42513 1.12806,17.42513 0.16618,0 15.48026,-30.69015 16.33578,-32.7377 l 0.3551,-0.84987 7.82529,0 c 6.92587,0 7.8253,0.0453 7.8253,0.3945 0,0.21698 -0.97253,5.22637 -2.16119,11.13198 -1.18864,5.9056 -2.12619,10.90887 -2.08344,11.11837 0.16737,0.82003 9.84636,-8.25783 12.72611,-11.93574 3.69144,-4.71457 4.71969,-8.77347 2.90653,-11.4732 -1.20222,-1.79006 -3.23117,-3.00121 -7.09486,-4.23517 -5.56489,-1.77727 -11.11832,-2.20622 -25.63262,-1.97988 -10.92074,0.1703 -13.66782,0.34147 -23.23351,1.44767 -11.40872,1.31932 -29.42102,4.11783 -30.63057,4.75895 -0.19302,0.10231 0.52805,0.4987 1.76777,0.97178 5.286,2.01717 9.13272,6.10839 10.43143,11.09446 0.48339,1.85584 0.48672,3.25654 0.008,3.44016 -0.20168,0.0774 -2.50963,0.21964 -5.12877,0.3161 l -4.76208,0.17537 -0.46348,-1.23609 c -1.03321,-2.7555 -2.46749,-4.48987 -4.37753,-5.29342 -1.30114,-0.54738 -6.71802,-0.79416 -8.2174,-0.37436 -1.32596,0.37125 -2.79517,1.50955 -3.36123,2.60419 -0.62076,1.20042 -0.52172,3.05095 0.22317,4.17016 0.74957,1.12624 2.41866,2.13546 10.52636,6.36481 3.25429,1.69758 6.37945,3.37851 6.9448,3.7354 1.61092,1.01692 3.51197,3.15932 4.45669,5.0225 l 0.86436,1.70469 0,4.07182 0,4.07181 -1.11647,2.25306 c -1.50687,3.04088 -4.49003,6.06885 -7.52369,7.63672 -3.26822,1.68909 -5.23353,2.10559 -10.63652,2.25412 -5.27231,0.14494 -7.43996,-0.10783 -10.5083,-1.22535 -6.87791,-2.50501 -10.09096,-6.83888 -10.86801,-14.65914 l -0.167,-1.68071 0.71202,-0.13896 c 0.39161,-0.0764 2.76371,-0.21444 5.27133,-0.3067 l 4.55932,-0.16774 0.43291,2.01456 c 1.15382,5.36938 3.07289,6.68976 9.76763,6.72042 3.98834,0.0183 5.24182,-0.26373 6.94486,-1.56242 1.73176,-1.3206 2.19649,-2.2953 2.09076,-4.38499 -0.1321,-2.61051 -0.31247,-2.74929 -10.17204,-7.82598 -3.33351,-1.71643 -6.71453,-3.55535 -7.51338,-4.0865 -1.91649,-1.27426 -3.28641,-2.86923 -4.40045,-5.12332 -0.85513,-1.73025 -0.91879,-2.02833 -1.03481,-4.84544 -0.0809,-1.96548 -0.0129,-3.47112 0.19716,-4.36131 1.00808,-4.27239 4.65305,-8.41925 8.86387,-10.08439 1.50546,-0.59532 15.46236,-3.81336 25.02485,-5.76996 12.22808,-2.50203 24.72779,-4.30864 38.96682,-5.63196 5.03501,-0.46793 29.19777,-0.4576 32.32488,0.0138 8.99126,1.35546 14.34329,3.33741 17.12456,6.34151 1.65182,1.78416 2.05881,3.01207 1.88679,5.69246 -0.0969,1.51082 -0.30522,2.26565 -1.02941,3.73094 -2.98306,6.03581 -11.09949,13.49554 -24.52396,22.53971 l -4.35564,2.93442 -2.21406,10.14508 c -1.21773,5.5798 -2.26791,10.34396 -2.33373,10.58702 -0.10876,0.40163 -0.56732,0.44195 -5.02716,0.44195 -4.15237,0 -4.90747,-0.0572 -4.90747,-0.37174 0,-0.20446 1.3134,-6.02862 2.91866,-12.94258 3.67352,-15.82208 5.66408,-24.65414 5.5763,-24.74192 -0.1482,-0.1482 -16.0948,32.70906 -17.88763,36.85668 l -0.51852,1.19956 -5.15386,0 c -3.89539,0 -5.18102,-0.0771 -5.2651,-0.31568 -0.0974,-0.27647 -1.86564,-35.43032 -1.9103,-37.97865 -0.0139,-0.79232 -0.0599,-0.88057 -0.24533,-0.47028 -0.12554,0.27779 -1.88407,9.0184 -3.90785,19.42357 -2.02378,10.40516 -3.73836,19.01356 -3.81018,19.12976 -0.0718,0.1162 -2.42512,0.21273 -5.22957,0.2145 -4.77705,0.003 -5.22655,0.0442 -7.1193,0.65166 -4.91632,1.57795 -20.01169,4.85256 -30.68338,6.65609 -8.03336,1.35765 -17.26363,2.50714 -27.7792,3.45948 -3.9078,0.35391 -27.72634,0.70449 -30.05203,0.44233 l 0,0 z"
       id="path3800"
       inkscape:connector-curvature="0" />
    <path
       style="opacity:0.97000002;fill:#000000;fill-opacity:1;fill-rule:evenodd;stroke:#000000;stroke-width:0.07576144;stroke-miterlimit:4;stroke-opacity:1;stroke-dasharray:none"
       d="m 306.42,472.21438 c -6.70612,-0.67978 -11.45631,-1.43791 -15.02602,-2.39815 -2.29787,-0.61812 -4.04054,-1.24598 -4.04078,-1.45584 -1e-4,-0.0853 -0.30636,-0.17287 -0.68058,-0.19458 -0.37422,-0.0217 -0.83264,-0.2477 -1.01873,-0.50218 -0.18608,-0.25448 -0.47644,-0.46633 -0.64525,-0.47077 -0.67533,-0.0177 -1.44138,-0.42792 -1.28172,-0.68627 0.0934,-0.15105 0.0526,-0.20147 -0.091,-0.11268 -0.36181,0.22362 -2.09843,-1.08371 -3.00214,-2.26002 -1.60444,-2.08838 -1.90579,-3.84052 -1.11159,-6.46308 0.75919,-2.50694 2.4081,-4.90028 5.39342,-7.82839 3.23408,-3.1721 6.51491,-5.72649 12.42921,-9.67712 2.63015,-1.75689 5.02826,-3.42218 5.32915,-3.70063 0.72163,-0.66785 1.12268,-2.245 3.87318,-15.23147 1.26497,-5.97253 2.35814,-11.05801 2.42927,-11.30108 0.11784,-0.40271 0.59867,-0.44194 5.4156,-0.44194 4.94177,0 5.28629,0.0299 5.28629,0.45917 0,0.25254 -1.25422,6.58809 -2.78715,14.079 -3.58119,17.50011 -4.03138,19.97046 -4.03138,22.12164 0,2.16996 0.42918,3.16173 1.94603,4.49691 1.63196,1.43651 3.19281,1.90103 6.38772,1.90103 5.86967,0 8.90625,-2.24264 10.78946,-7.96849 0.85195,-2.5903 1.95511,-7.41848 5.26674,-23.0507 1.18199,-5.57949 2.26203,-10.57069 2.40009,-11.09155 l 0.251,-0.94701 5.29357,0 c 4.54974,0 5.29357,0.0535 5.29357,0.38086 0,0.4017 -4.54654,22.33644 -5.83605,28.15595 -2.13546,9.63728 -4.18683,14.31681 -7.83335,17.86926 -2.00275,1.95108 -3.77083,3.15794 -6.04298,4.12482 -3.42665,1.45818 -4.4216,1.61332 -10.33966,1.61228 -5.29233,-0.001 -5.48064,-0.0188 -7.44988,-0.70657 -1.11116,-0.38809 -2.76874,-1.14762 -3.6835,-1.68784 -1.81152,-1.06983 -4.29235,-3.54761 -5.33741,-5.33088 -1.76626,-3.01389 -2.32809,-7.1383 -1.61037,-11.82181 0.22192,-1.44815 0.40349,-2.7372 0.40349,-2.86457 0,-0.71674 -7.79386,6.72791 -9.61438,9.18359 -2.75378,3.71456 -3.50469,6.86427 -2.25294,9.45002 1.45047,2.99628 6.32889,5.62721 13.04069,7.03283 6.79041,1.42208 13.53146,1.91905 26.10075,1.92419 19.19867,0.008 42.71026,-2.61944 63.63961,-7.1114 2.01399,-0.43225 3.9056,-0.83736 4.20358,-0.90024 0.41217,-0.087 0.63593,-0.45585 0.93538,-1.54204 0.38129,-1.38302 4.53941,-20.8651 8.25499,-38.67708 0.99959,-4.79191 1.88937,-8.78392 1.97729,-8.87114 0.0879,-0.0872 3.54731,-0.21929 7.68754,-0.2935 l 7.52769,-0.13494 0.20049,0.54604 c 0.11027,0.30033 0.50458,6.91001 0.87625,14.68819 0.75989,15.90256 0.91141,18.30901 1.15278,18.30901 0.17655,0 11.47678,-22.47451 14.76581,-29.36704 l 1.89348,-3.96799 7.83978,0 c 7.03656,0 7.83978,0.0416 7.83978,0.40635 0,0.32242 -3.68116,19.48888 -4.17811,21.75387 -0.0686,0.31251 -0.0273,0.56821 0.0916,0.56821 0.41891,0 7.58685,-6.56923 9.92611,-9.09702 4.36944,-4.7216 6.04402,-7.63782 6.22992,-10.84921 0.0923,-1.59523 0.0218,-2.10448 -0.40823,-2.94743 -1.02252,-2.00431 -3.32955,-3.46634 -7.62068,-4.82946 -5.59461,-1.77716 -12.08222,-2.20264 -27.90547,-1.83012 -10.45951,0.24624 -12.3343,0.36513 -20.32932,1.28912 -10.3756,1.19911 -29.71851,4.18939 -30.75004,4.75373 -0.19046,0.1042 0.47216,0.4982 1.64286,0.97686 1.07914,0.44122 2.56949,1.1852 3.31188,1.6533 1.80274,1.13666 4.17509,3.51375 5.21486,5.22529 1.09107,1.79598 2.14516,4.94763 2.14516,6.41388 0,1.46337 0.0659,1.44635 -5.79988,1.49821 l -4.5745,0.0404 -0.56981,-1.39507 c -0.84147,-2.06013 -2.06039,-3.68601 -3.31431,-4.42086 -1.3433,-0.78723 -4.84889,-1.24287 -7.65351,-0.99477 -3.121,0.27608 -5.10957,2.09978 -5.10957,4.68597 0,2.44672 0.84636,3.10239 10.73287,8.31476 3.75019,1.97718 7.38885,4.01927 8.08592,4.53799 1.55029,1.15364 3.16015,3.19801 4.05155,5.14508 0.64911,1.41786 0.66513,1.57033 0.56922,5.4198 -0.0965,3.87343 -0.11672,3.99657 -0.91516,5.57563 -2.49913,4.94244 -6.66254,8.31635 -12.0713,9.78225 -1.46424,0.39684 -2.66257,0.4714 -7.54891,0.46969 -6.65434,-0.002 -7.53119,-0.15881 -11.4299,-2.03966 -5.35505,-2.58344 -8.15369,-6.89507 -8.77236,-13.51487 -0.14942,-1.5987 -0.11516,-1.94477 0.20465,-2.06749 0.21126,-0.0811 2.59449,-0.22773 5.29607,-0.32592 l 4.91196,-0.17853 0.44217,1.99348 c 0.58032,2.61629 1.23894,3.9693 2.42736,4.98654 1.42045,1.21585 2.45101,1.46357 6.69038,1.60816 4.73976,0.16167 5.99694,-0.1314 7.89878,-1.84132 1.45976,-1.31244 1.94858,-2.56333 1.70271,-4.35715 -0.29571,-2.15747 -0.95899,-2.63424 -10.62594,-7.63817 -3.051,-1.57929 -6.20122,-3.30813 -7.00049,-3.84187 -1.92728,-1.28699 -3.30472,-2.89556 -4.43111,-5.17465 -0.87486,-1.77016 -0.93125,-2.03476 -1.03121,-4.83838 -0.18184,-5.10005 0.76638,-7.63943 4.11763,-11.02726 3.23304,-3.26835 3.83149,-3.48018 19.85132,-7.02682 18.46401,-4.08777 30.18514,-5.9628 48.58936,-7.77287 2.22698,-0.21902 7.79141,-0.32252 17.29887,-0.32177 13.41849,10e-4 14.15579,0.0255 17.29886,0.57237 8.21185,1.42891 12.77293,3.27048 15.50566,6.26052 1.52185,1.66515 1.87861,2.76887 1.74551,5.40023 -0.12445,2.46024 -0.98495,4.38529 -3.39063,7.58523 -3.94802,5.25152 -11.16664,11.39179 -22.37481,19.03236 -2.18272,1.48796 -4.01779,2.78623 -4.07794,2.88505 -0.0601,0.0988 -1.09087,4.66854 -2.29051,10.15494 -1.19964,5.48639 -2.24169,10.17413 -2.31567,10.41719 -0.12209,0.40113 -0.5878,0.44195 -5.04199,0.44195 -4.368,0 -4.90747,-0.0453 -4.90747,-0.41168 0,-0.22643 1.69562,-7.81204 3.76803,-16.85693 4.57368,-19.96136 4.56814,-19.93626 4.42814,-20.07626 -0.13577,-0.13578 -9.30147,18.71384 -16.71621,34.37754 l -1.40464,2.96733 -5.12428,0 c -2.81836,0 -5.18305,-0.0951 -5.25486,-0.21129 -0.0718,-0.1162 -0.55741,-8.82166 -1.07909,-19.34546 -0.52168,-10.52379 -1.03567,-18.92347 -1.1422,-18.66594 -0.15091,0.3648 -4.57527,22.59256 -7.19339,36.13925 l -0.40266,2.08344 -4.9896,0 c -4.22213,0 -5.23647,0.0755 -6.59457,0.49076 -3.69807,1.13078 -11.90504,3.06341 -20.04025,4.7192 -13.08721,2.66369 -24.34076,4.2519 -40.15356,5.66683 -2.93042,0.26222 -28.00395,0.53724 -30.05204,0.32963 z"
       id="path3802"
       inkscape:connector-curvature="0" />
  </g>
</svg>
