<?xml version="1.0" encoding="utf-8"?>
<!-- Generator: Adobe Illustrator 15.0.2, SVG Export Plug-In . SVG Version: 6.00 Build 0)  -->
<!DOCTYPE svg PUBLIC "-//W3C//DTD SVG 1.1//EN" "http://www.w3.org/Graphics/SVG/1.1/DTD/svg11.dtd">
<svg version="1.1" id="Ebene_1" xmlns="http://www.w3.org/2000/svg" xmlns:xlink="http://www.w3.org/1999/xlink" x="0px" y="0px"
	 width="352.542px" height="306.78px" viewBox="0 0 352.542 306.78" enable-background="new 0 0 352.542 306.78"
	 xml:space="preserve">
<line fill="none" stroke="#000000" stroke-width="0.652" stroke-miterlimit="2.613" x1="6.674" y1="5.957" x2="342.674" y2="5.957"/>
<line fill="none" stroke="#000000" stroke-width="0.502" stroke-miterlimit="2.613" x1="6.674" y1="36.313" x2="342.674" y2="36.313"/>
<text transform="matrix(1 0 0 1 111.9014 19.2808)"><tspan x="0" y="0" font-family="'Times-Italic'" font-size="7.9998">Rules</tspan><tspan x="17.773" y="0" font-family="'Times-Italic'" font-size="7.9998" letter-spacing="24">/</tspan><tspan x="44.203" y="0" font-family="'Times-Italic'" font-size="7.9998">Sensory</tspan></text>
<text transform="matrix(1 0 0 1 64.002 29.2778)"><tspan x="0" y="0" font-family="'Times-Italic'" font-size="7.9998">F</tspan><tspan x="4.287" y="0" font-family="'Times-Italic'" font-size="7.9998">antas</tspan><tspan x="21.622" y="0" font-family="'Times-Italic'" font-size="7.9998" letter-spacing="23">y</tspan><tspan x="48.34" y="0" font-family="'Times-Italic'" font-size="7.9998">Goal</tspan><tspan x="64.34" y="0" font-family="'Times-Italic'" font-size="7.9998" letter-spacing="25">s</tspan><tspan x="93.437" y="0" font-family="'Times-Italic'" font-size="7.9998">Stimul</tspan><tspan x="113.881" y="0" font-family="'Times-Italic'" font-size="7.9998" letter-spacing="23">i</tspan><tspan x="139.911" y="0" font-family="'Times-Italic'" font-size="7.9998">Challen</tspan><tspan x="165.243" y="0" font-family="'Times-Italic'" font-size="7.9998">g</tspan><tspan x="169.186" y="0" font-family="'Times-Italic'" font-size="7.9998" letter-spacing="16">e</tspan><tspan x="189.529" y="0" font-family="'Times-Italic'" font-size="7.9998">Myster</tspan><tspan x="211.743" y="0" font-family="'Times-Italic'" font-size="7.9998" letter-spacing="22">y</tspan><tspan x="237.797" y="0" font-family="'Times-Italic'" font-size="7.9998">Cont</tspan><tspan x="253.355" y="0" font-family="'Times-Italic'" font-size="7.9998">r</tspan><tspan x="256.108" y="0" font-family="'Times-Italic'" font-size="7.9998">ol</tspan></text>
<text transform="matrix(1 0 0 1 6.6743 50.4175)"><tspan x="0" y="0" font-family="'Times-Roman'" font-size="7.9998">Descriptor</tspan><tspan x="33.765" y="0" font-family="'Times-Roman'" font-size="7.9998" letter-spacing="10">s</tspan><tspan x="47.686" y="0" font-family="'Times-Roman'" font-size="7.9998">Imaginary or</tspan></text>
<text transform="matrix(1 0 0 1 59.3691 60.4146)"><tspan x="0" y="0" font-family="'Times-Roman'" font-size="7.9998">f</tspan><tspan x="2.608" y="0" font-family="'Times-Roman'" font-size="7.9998">antasy con</tspan></text>
<text transform="matrix(1 0 0 1 95.9663 60.418)" font-family="'Times-Roman'" font-size="7.9998">-</text>
<text transform="matrix(1 0 0 1 59.3691 70.4121)"><tspan x="0" y="0" font-family="'Times-Roman'" font-size="7.9998">t</tspan><tspan x="2.223" y="0" font-family="'Times-Roman'" font-size="7.9998">e</tspan><tspan x="5.661" y="0" font-family="'Times-Roman'" font-size="7.9998">xt, themes,</tspan></text>
<text transform="matrix(1 0 0 1 59.3691 80.4097)" font-family="'Times-Roman'" font-size="7.9998">or characters</text>
<text transform="matrix(1 0 0 1 102.063 50.418)" font-family="'Times-Roman'" font-size="7.9998">Clear rules,</text>
<text transform="matrix(1 0 0 1 107.063 60.4155)" font-family="'Times-Roman'" font-size="7.9998">goals, and</text>
<text transform="matrix(1 0 0 1 107.063 70.4131)" font-family="'Times-Roman'" font-size="7.9998">feedback</text>
<text transform="matrix(1 0 0 1 107.063 80.4102)" font-family="'Times-Roman'" font-size="7.9998">on progress</text>
<text transform="matrix(1 0 0 1 107.063 90.4077)"><tspan x="0" y="0" font-family="'Times-Roman'" font-size="7.9998">t</tspan><tspan x="2.223" y="0" font-family="'Times-Roman'" font-size="7.9998">o</tspan><tspan x="6.046" y="0" font-family="'Times-Roman'" font-size="7.9998">w</tspan><tspan x="11.768" y="0" font-family="'Times-Roman'" font-size="7.9998">ard goals</tspan></text>
<text transform="matrix(1 0 0 1 149.7573 50.4189)" font-family="'Times-Roman'" font-size="7.9998">Dramatic or</text>
<text transform="matrix(1 0 0 1 154.7568 60.4165)"><tspan x="0" y="0" font-family="'Times-Roman'" font-size="7.9998">n</tspan><tspan x="4" y="0" font-family="'Times-Roman'" font-size="7.9998">ov</tspan><tspan x="11.776" y="0" font-family="'Times-Roman'" font-size="7.9998">el visual</tspan></text>
<text transform="matrix(1 0 0 1 154.7568 70.4136)" font-family="'Times-Roman'" font-size="7.9998">and auditory</text>
<text transform="matrix(1 0 0 1 154.7568 80.4111)" font-family="'Times-Roman'" font-size="7.9998">stimuli</text>
<text transform="matrix(1 0 0 1 197.4517 50.4199)"><tspan x="0" y="0" font-family="'Times-Roman'" font-size="7.9998">Optimal l</tspan><tspan x="30.44" y="0" font-family="'Times-Roman'" font-size="7.9998">e</tspan><tspan x="33.815" y="0" font-family="'Times-Roman'" font-size="7.9998">v</tspan><tspan x="37.703" y="0" font-family="'Times-Roman'" font-size="7.9998">el</tspan></text>
<text transform="matrix(1 0 0 1 202.4507 60.4175)"><tspan x="0" y="0" font-family="'Times-Roman'" font-size="7.9998">of di</tspan><tspan x="14.887" y="0" font-family="'Times-Roman'" font-size="7.9998">ff</tspan><tspan x="19.862" y="0" font-family="'Times-Roman'" font-size="7.9998">iculty</tspan></text>
<text transform="matrix(1 0 0 1 202.4507 70.4146)" font-family="'Times-Roman'" font-size="7.9998">and uncertain</text>
<text transform="matrix(1 0 0 1 202.4507 80.4121)" font-family="'Times-Roman'" font-size="7.9998">goal</text>
<text transform="matrix(1 0 0 1 202.4507 90.4097)" font-family="'Times-Roman'" font-size="7.9998">attainment</text>
<text transform="matrix(1 0 0 1 247.2847 50.4209)"><tspan x="0" y="0" font-family="'Times-Roman'" font-size="7.9998">Optimal l</tspan><tspan x="30.44" y="0" font-family="'Times-Roman'" font-size="7.9998">e</tspan><tspan x="33.815" y="0" font-family="'Times-Roman'" font-size="7.9998">v</tspan><tspan x="37.703" y="0" font-family="'Times-Roman'" font-size="7.9998">el</tspan></text>
<text transform="matrix(1 0 0 1 252.2847 60.4185)" font-family="'Times-Roman'" font-size="7.9998">of informa</text>
<text transform="matrix(1 0 0 1 286.2749 60.4214)" font-family="'Times-Roman'" font-size="7.9998">-</text>
<text transform="matrix(1 0 0 1 252.2847 70.4155)" font-family="'Times-Roman'" font-size="7.9998">tional</text>
<text transform="matrix(1 0 0 1 252.2847 80.4131)"><tspan x="0" y="0" font-family="'Times-Roman'" font-size="7.9998">compl</tspan><tspan x="19.995" y="0" font-family="'Times-Roman'" font-size="7.9998">e</tspan><tspan x="23.435" y="0" font-family="'Times-Roman'" font-size="7.9998">xity</tspan></text>
<text transform="matrix(1 0 0 1 294.978 50.4214)"><tspan x="0" y="0" font-family="'Times-Roman'" font-size="7.9998">Act</tspan><tspan x="11.551" y="0" font-family="'Times-Roman'" font-size="7.9998">i</tspan><tspan x="13.597" y="0" font-family="'Times-Roman'" font-size="7.9998">v</tspan><tspan x="17.485" y="0" font-family="'Times-Roman'" font-size="7.9998">e learner</tspan></text>
<text transform="matrix(1 0 0 1 299.978 60.4189)" font-family="'Times-Roman'" font-size="7.9998">control</text>
<text transform="matrix(1 0 0 1 6.6733 104.4077)" font-family="'Times-Roman'" font-size="7.9998">Related</text>
<text transform="matrix(1 0 0 1 11.6733 114.4048)" font-family="'Times-Roman'" font-size="7.9998">research</text>
<text transform="matrix(1 0 0 1 54.3677 104.4077)"><tspan x="0" y="0" font-family="'Times-Roman'" font-size="7.9998">Cord</tspan><tspan x="16" y="0" font-family="'Times-Roman'" font-size="7.9998">o</tspan><tspan x="19.888" y="0" font-family="'Times-Roman'" font-size="7.9998">v</tspan><tspan x="23.711" y="0" font-family="'Times-Roman'" font-size="7.9998">a &amp;</tspan></text>
<text transform="matrix(1 0 0 1 59.3672 114.4048)"><tspan x="0" y="0" font-family="'Times-Roman'" font-size="7.9998">Leppe</tspan><tspan x="19.988" y="0" font-family="'Times-Roman'" font-size="7.9998">r</tspan><tspan x="22.356" y="0" font-family="'Times-Roman'" font-size="7.9998">,</tspan></text>
<text transform="matrix(1 0 0 1 59.3672 124.4023)" font-family="'Times-Roman'" font-size="7.9998">1996;</text>
<text transform="matrix(1 0 0 1 54.3677 134.3999)"><tspan x="0" y="0" font-family="'Times-Roman'" font-size="7.9998">Dris</tspan><tspan x="13.777" y="0" font-family="'Times-Roman'" font-size="7.9998">k</tspan><tspan x="17.721" y="0" font-family="'Times-Roman'" font-size="7.9998">ell &amp;</tspan></text>
<text transform="matrix(1 0 0 1 59.3672 144.397)"><tspan x="0" y="0" font-family="'Times-Roman'" font-size="7.9998">Dwye</tspan><tspan x="19.105" y="0" font-family="'Times-Roman'" font-size="7.9998">r</tspan><tspan x="21.473" y="0" font-family="'Times-Roman'" font-size="7.9998">,</tspan></text>
<text transform="matrix(1 0 0 1 59.3672 154.3945)" font-family="'Times-Roman'" font-size="7.9998">1984;</text>
<text transform="matrix(1 0 0 1 54.3677 164.3921)" font-family="'Times-Roman'" font-size="7.9998">Malone,</text>
<text transform="matrix(1 0 0 1 59.3672 174.3892)" font-family="'Times-Roman'" font-size="7.9998">1980, 1981;</text>
<text transform="matrix(1 0 0 1 54.3677 184.3862)" font-family="'Times-Roman'" font-size="7.9998">Malone &amp;</text>
<text transform="matrix(1 0 0 1 59.3672 194.3843)"><tspan x="0" y="0" font-family="'Times-Roman'" font-size="7.9998">Leppe</tspan><tspan x="19.988" y="0" font-family="'Times-Roman'" font-size="7.9998">r</tspan><tspan x="22.356" y="0" font-family="'Times-Roman'" font-size="7.9998">,</tspan></text>
<text transform="matrix(1 0 0 1 59.3672 204.3804)" font-family="'Times-Roman'" font-size="7.9998">1987;</text>
<text transform="matrix(1 0 0 1 54.3677 214.3784)"><tspan x="0" y="0" font-family="'Times-Roman'" font-size="7.9998">P</tspan><tspan x="4.337" y="0" font-family="'Times-Roman'" font-size="7.9998">ar</tspan><tspan x="10.552" y="0" font-family="'Times-Roman'" font-size="7.9998">k</tspan><tspan x="14.496" y="0" font-family="'Times-Roman'" font-size="7.9998">er &amp;</tspan></text>
<text transform="matrix(1 0 0 1 59.3672 224.3765)"><tspan x="0" y="0" font-family="'Times-Roman'" font-size="7.9998">Leppe</tspan><tspan x="19.988" y="0" font-family="'Times-Roman'" font-size="7.9998">r</tspan><tspan x="22.356" y="0" font-family="'Times-Roman'" font-size="7.9998">,</tspan></text>
<text transform="matrix(1 0 0 1 59.3672 234.3726)" font-family="'Times-Roman'" font-size="7.9998">1992</text>
<text transform="matrix(1 0 0 1 102.0615 104.4092)"><tspan x="0" y="0" font-family="'Times-Roman'" font-size="7.9998">Dris</tspan><tspan x="13.777" y="0" font-family="'Times-Roman'" font-size="7.9998">k</tspan><tspan x="17.721" y="0" font-family="'Times-Roman'" font-size="7.9998">ell &amp;</tspan></text>
<text transform="matrix(1 0 0 1 107.0615 114.4067)"><tspan x="0" y="0" font-family="'Times-Roman'" font-size="7.9998">Dwye</tspan><tspan x="19.105" y="0" font-family="'Times-Roman'" font-size="7.9998">r</tspan><tspan x="21.473" y="0" font-family="'Times-Roman'" font-size="7.9998">,</tspan></text>
<text transform="matrix(1 0 0 1 107.0615 124.4038)" font-family="'Times-Roman'" font-size="7.9998">1984;</text>
<text transform="matrix(1 0 0 1 102.0615 134.4014)" font-family="'Times-Roman'" font-size="7.9998">Lepper &amp;</text>
<text transform="matrix(1 0 0 1 107.0615 144.3984)"><tspan x="0" y="0" font-family="'Times-Roman'" font-size="7.9998">Chaba</tspan><tspan x="20.437" y="0" font-family="'Times-Roman'" font-size="7.9998">y</tspan><tspan x="23.901" y="0" font-family="'Times-Roman'" font-size="7.9998">,</tspan></text>
<text transform="matrix(1 0 0 1 107.0615 154.396)" font-family="'Times-Roman'" font-size="7.9998">1985;</text>
<text transform="matrix(1 0 0 1 102.0615 164.394)" font-family="'Times-Roman'" font-size="7.9998">Malone,</text>
<text transform="matrix(1 0 0 1 107.0615 174.3901)" font-family="'Times-Roman'" font-size="7.9998">1980, 1981;</text>
<text transform="matrix(1 0 0 1 102.0615 184.3882)" font-family="'Times-Roman'" font-size="7.9998">Ricci, Salas,</text>
<text transform="matrix(1 0 0 1 107.0615 194.3853)" font-family="'Times-Roman'" font-size="7.9998">&amp; Cannon-</text>
<text transform="matrix(1 0 0 1 107.0615 204.3823)"><tspan x="0" y="0" font-family="'Times-Roman'" font-size="7.9998">B</tspan><tspan x="5.336" y="0" font-family="'Times-Roman'" font-size="7.9998">o</tspan><tspan x="9.16" y="0" font-family="'Times-Roman'" font-size="7.9998">wers,</tspan></text>
<text transform="matrix(1 0 0 1 107.0615 214.3804)" font-family="'Times-Roman'" font-size="7.9998">1996;</text>
<text transform="matrix(1 0 0 1 102.0615 224.3774)"><tspan x="0" y="0" font-family="'Times-Roman'" font-size="7.9998">Schloss, </tspan><tspan x="28.448" y="0" font-family="'Times-Roman'" font-size="7.9998">W</tspan><tspan x="35.703" y="0" font-family="'Times-Roman'" font-size="7.9998">is-</tspan></text>
<text transform="matrix(1 0 0 1 107.0615 234.3745)"><tspan x="0" y="0" font-family="'Times-Roman'" font-size="7.9998">ni</tspan><tspan x="6.223" y="0" font-family="'Times-Roman'" font-size="7.9998">e</tspan><tspan x="9.597" y="0" font-family="'Times-Roman'" font-size="7.9998">wski, &amp;</tspan></text>
<text transform="matrix(1 0 0 1 107.0615 244.3726)" font-family="'Times-Roman'" font-size="7.9998">Cartwright,</text>
<text transform="matrix(1 0 0 1 107.0615 254.3696)" font-family="'Times-Roman'" font-size="7.9998">1988;</text>
<text transform="matrix(1 0 0 1 102.0615 264.3667)" font-family="'Times-Roman'" font-size="7.9998">Thurman,</text>
<text transform="matrix(1 0 0 1 107.0615 274.3638)" font-family="'Times-Roman'" font-size="7.9998">1993</text>
<text transform="matrix(1 0 0 1 149.7554 104.4116)" font-family="'Times-Roman'" font-size="7.9998">Hereford &amp;</text>
<text transform="matrix(1 0 0 1 154.7554 114.4087)"><tspan x="0" y="0" font-family="'Times-Roman'" font-size="7.9998">W</tspan><tspan x="7.254" y="0" font-family="'Times-Roman'" font-size="7.9998">inn, 1994;</tspan></text>
<text transform="matrix(1 0 0 1 149.7554 124.4062)"><tspan x="0" y="0" font-family="'Times-Roman'" font-size="7.9998">Leppe</tspan><tspan x="19.988" y="0" font-family="'Times-Roman'" font-size="7.9998">r</tspan><tspan x="22.356" y="0" font-family="'Times-Roman'" font-size="7.9998">, 1985;</tspan></text>
<text transform="matrix(1 0 0 1 149.7554 134.4038)" font-family="'Times-Roman'" font-size="7.9998">Malone,</text>
<text transform="matrix(1 0 0 1 154.7554 144.4009)" font-family="'Times-Roman'" font-size="7.9998">1980, 1981;</text>
<text transform="matrix(1 0 0 1 149.7554 154.3984)"><tspan x="0" y="0" font-family="'Times-Roman'" font-size="7.9998">Riebe</tspan><tspan x="18.66" y="0" font-family="'Times-Roman'" font-size="7.9998">r</tspan><tspan x="21.028" y="0" font-family="'Times-Roman'" font-size="7.9998">, 1991;</tspan></text>
<text transform="matrix(1 0 0 1 149.7554 164.396)" font-family="'Times-Roman'" font-size="7.9998">Surber &amp;</text>
<text transform="matrix(1 0 0 1 154.7554 174.3931)"><tspan x="0" y="0" font-family="'Times-Roman'" font-size="7.9998">Leede</tspan><tspan x="19.539" y="0" font-family="'Times-Roman'" font-size="7.9998">r</tspan><tspan x="21.906" y="0" font-family="'Times-Roman'" font-size="7.9998">,</tspan></text>
<text transform="matrix(1 0 0 1 154.7554 184.3901)" font-family="'Times-Roman'" font-size="7.9998">1988;</text>
<text transform="matrix(1 0 0 1 149.7554 194.3882)" font-family="'Times-Roman'" font-size="7.9998">Thurman,</text>
<text transform="matrix(1 0 0 1 154.7554 204.3853)" font-family="'Times-Roman'" font-size="7.9998">1993;</text>
<text transform="matrix(1 0 0 1 149.7554 214.3823)"><tspan x="0" y="0" font-family="'Times-Roman'" font-size="7.9998">W</tspan><tspan x="7.254" y="0" font-family="'Times-Roman'" font-size="7.9998">ishart, 1990</tspan></text>
<text transform="matrix(1 0 0 1 197.4497 104.4131)" font-family="'Times-Roman'" font-size="7.9998">Elliot &amp;</text>
<text transform="matrix(1 0 0 1 202.4497 114.4106)"><tspan x="0" y="0" font-family="'Times-Roman'" font-size="7.9998">Harac</tspan><tspan x="17.934" y="0" font-family="'Times-Roman'" font-size="7.9998">k</tspan><tspan x="21.693" y="0" font-family="'Times-Roman'" font-size="7.9998">i</tspan><tspan x="23.684" y="0" font-family="'Times-Roman'" font-size="7.9998">e</tspan><tspan x="26.818" y="0" font-family="'Times-Roman'" font-size="7.9998">wicz</tspan><tspan x="40.991" y="0" font-family="'Times-Roman'" font-size="7.9998">,</tspan></text>
<text transform="matrix(1 0 0 1 202.4497 124.4077)" font-family="'Times-Roman'" font-size="7.9998">1994;</text>
<text transform="matrix(1 0 0 1 197.4497 134.4053)"><tspan x="0" y="0" font-family="'Times-Roman'" font-size="7.9998">Leppe</tspan><tspan x="19.987" y="0" font-family="'Times-Roman'" font-size="7.9998">r</tspan><tspan x="22.355" y="0" font-family="'Times-Roman'" font-size="7.9998">, 1985;</tspan></text>
<text transform="matrix(1 0 0 1 197.4497 144.4028)" font-family="'Times-Roman'" font-size="7.9998">Lepper &amp;</text>
<text transform="matrix(1 0 0 1 202.4497 154.3999)"><tspan x="0" y="0" font-family="'Times-Roman'" font-size="7.9998">Chaba</tspan><tspan x="20.437" y="0" font-family="'Times-Roman'" font-size="7.9998">y</tspan><tspan x="23.9" y="0" font-family="'Times-Roman'" font-size="7.9998">,</tspan></text>
<text transform="matrix(1 0 0 1 202.4497 164.3979)" font-family="'Times-Roman'" font-size="7.9998">1985;</text>
<text transform="matrix(1 0 0 1 197.4497 174.394)"><tspan x="0" y="0" font-family="'Times-Roman'" font-size="7.9998">Leppe</tspan><tspan x="19.987" y="0" font-family="'Times-Roman'" font-size="7.9998">r</tspan><tspan x="22.355" y="0" font-family="'Times-Roman'" font-size="7.9998">,</tspan></text>
<text transform="matrix(1 0 0 1 202.4497 184.3921)"><tspan x="0" y="0" font-family="'Times-Roman'" font-size="7.9998">W</tspan><tspan x="6.895" y="0" font-family="'Times-Roman'" font-size="7.9998">ool</tspan><tspan x="17.117" y="0" font-family="'Times-Roman'" font-size="7.9998">v</tspan><tspan x="20.997" y="0" font-family="'Times-Roman'" font-size="7.9998">erton,</tspan></text>
<text transform="matrix(1 0 0 1 202.4497 194.3892)" font-family="'Times-Roman'" font-size="7.9998">Mumme, &amp;</text>
<text transform="matrix(1 0 0 1 202.4497 204.3862)"><tspan x="0" y="0" font-family="'Times-Roman'" font-size="7.9998">Gurtne</tspan><tspan x="22.214" y="0" font-family="'Times-Roman'" font-size="7.9998">r</tspan><tspan x="24.582" y="0" font-family="'Times-Roman'" font-size="7.9998">,</tspan></text>
<text transform="matrix(1 0 0 1 202.4497 214.3843)" font-family="'Times-Roman'" font-size="7.9998">1993;</text>
<text transform="matrix(1 0 0 1 197.4497 224.3813)" font-family="'Times-Roman'" font-size="7.9998">Malone, 1980,</text>
<text transform="matrix(1 0 0 1 202.4497 234.3784)" font-family="'Times-Roman'" font-size="7.9998">1981;</text>
<text transform="matrix(1 0 0 1 197.4497 244.3765)" font-family="'Times-Roman'" font-size="7.9998">Thurman,</text>
<text transform="matrix(1 0 0 1 202.4497 254.3735)" font-family="'Times-Roman'" font-size="7.9998">1993;</text>
<text transform="matrix(1 0 0 1 197.4497 264.3706)" font-family="'Times-Roman'" font-size="7.9998">Whitehall &amp;</text>
<text transform="matrix(1 0 0 1 202.4497 274.3687)" font-family="'Times-Roman'" font-size="7.9998">McDonald,</text>
<text transform="matrix(1 0 0 1 202.4497 284.3657)" font-family="'Times-Roman'" font-size="7.9998">1993;</text>
<text transform="matrix(1 0 0 1 197.4497 294.3628)"><tspan x="0" y="0" font-family="'Times-Roman'" font-size="7.9998">W</tspan><tspan x="7.255" y="0" font-family="'Times-Roman'" font-size="7.9998">ishart, 1990</tspan></text>
<text transform="matrix(1 0 0 1 247.2827 104.4155)"><tspan x="0" y="0" font-family="'Times-Roman'" font-size="7.9998">Da</tspan><tspan x="9.328" y="0" font-family="'Times-Roman'" font-size="7.9998">y</tspan><tspan x="12.792" y="0" font-family="'Times-Roman'" font-size="7.9998">, 1982;</tspan></text>
<text transform="matrix(1 0 0 1 247.2827 114.4131)"><tspan x="0" y="0" font-family="'Times-Roman'" font-size="7.9998">Leppe</tspan><tspan x="19.987" y="0" font-family="'Times-Roman'" font-size="7.9998">r</tspan><tspan x="22.355" y="0" font-family="'Times-Roman'" font-size="7.9998">, 1985;</tspan></text>
<text transform="matrix(1 0 0 1 247.2827 124.4102)"><tspan x="0" y="0" font-family="'Times-Roman'" font-size="7.9998">Lo</tspan><tspan x="8.887" y="0" font-family="'Times-Roman'" font-size="7.9998">e</tspan><tspan x="12.261" y="0" font-family="'Times-Roman'" font-size="7.9998">wenstein,</tspan></text>
<text transform="matrix(1 0 0 1 252.2827 134.4077)" font-family="'Times-Roman'" font-size="7.9998">1994;</text>
<text transform="matrix(1 0 0 1 247.2827 144.4053)" font-family="'Times-Roman'" font-size="7.9998">Malone, 1980,</text>
<text transform="matrix(1 0 0 1 252.2827 154.4023)" font-family="'Times-Roman'" font-size="7.9998">1981;</text>
<text transform="matrix(1 0 0 1 247.2827 164.3999)" font-family="'Times-Roman'" font-size="7.9998">Malone &amp;</text>
<text transform="matrix(1 0 0 1 252.2827 174.397)"><tspan x="0" y="0" font-family="'Times-Roman'" font-size="7.9998">Leppe</tspan><tspan x="19.987" y="0" font-family="'Times-Roman'" font-size="7.9998">r</tspan><tspan x="22.355" y="0" font-family="'Times-Roman'" font-size="7.9998">,</tspan></text>
<text transform="matrix(1 0 0 1 252.2827 184.394)" font-family="'Times-Roman'" font-size="7.9998">1987;</text>
<text transform="matrix(1 0 0 1 247.2827 194.3921)"><tspan x="0" y="0" font-family="'Times-Roman'" font-size="7.9998">T</tspan><tspan x="4.351" y="0" font-family="'Times-Roman'" font-size="7.9998">errell, 1990;</tspan></text>
<text transform="matrix(1 0 0 1 247.2827 204.3892)" font-family="'Times-Roman'" font-size="7.9998">Thurman,</text>
<text transform="matrix(1 0 0 1 252.2827 214.3862)" font-family="'Times-Roman'" font-size="7.9998">1993</text>
<text transform="matrix(1 0 0 1 294.9771 104.4175)"><tspan x="0" y="0" font-family="'Times-Roman'" font-size="7.9998">Cord</tspan><tspan x="16" y="0" font-family="'Times-Roman'" font-size="7.9998">o</tspan><tspan x="19.888" y="0" font-family="'Times-Roman'" font-size="7.9998">v</tspan><tspan x="23.711" y="0" font-family="'Times-Roman'" font-size="7.9998">a &amp;</tspan></text>
<text transform="matrix(1 0 0 1 299.9771 114.4146)"><tspan x="0" y="0" font-family="'Times-Roman'" font-size="7.9998">Leppe</tspan><tspan x="19.987" y="0" font-family="'Times-Roman'" font-size="7.9998">r</tspan><tspan x="22.355" y="0" font-family="'Times-Roman'" font-size="7.9998">,</tspan></text>
<text transform="matrix(1 0 0 1 299.9771 124.4121)" font-family="'Times-Roman'" font-size="7.9998">1996;</text>
<text transform="matrix(1 0 0 1 294.9771 134.4092)"><tspan x="0" y="0" font-family="'Times-Roman'" font-size="7.9998">Hanna</tspan><tspan x="20.878" y="0" font-family="'Times-Roman'" font-size="7.9998">f</tspan><tspan x="23.366" y="0" font-family="'Times-Roman'" font-size="7.9998">in &amp;</tspan></text>
<text transform="matrix(1 0 0 1 299.9771 144.4067)"><tspan x="0" y="0" font-family="'Times-Roman'" font-size="7.9998">Sull</tspan><tspan x="12.895" y="0" font-family="'Times-Roman'" font-size="7.9998">iv</tspan><tspan x="18.765" y="0" font-family="'Times-Roman'" font-size="7.9998">an,</tspan></text>
<text transform="matrix(1 0 0 1 299.9771 154.4038)" font-family="'Times-Roman'" font-size="7.9998">1996;</text>
<text transform="matrix(1 0 0 1 294.9771 164.4019)" font-family="'Times-Roman'" font-size="7.9998">Kinzie,</text>
<text transform="matrix(1 0 0 1 299.9771 174.3989)"><tspan x="0" y="0" font-family="'Times-Roman'" font-size="7.9998">Sull</tspan><tspan x="12.895" y="0" font-family="'Times-Roman'" font-size="7.9998">iv</tspan><tspan x="18.765" y="0" font-family="'Times-Roman'" font-size="7.9998">an, &amp;</tspan></text>
<text transform="matrix(1 0 0 1 299.9771 184.396)" font-family="'Times-Roman'" font-size="7.9998">Berdel,</text>
<text transform="matrix(1 0 0 1 299.9771 194.394)" font-family="'Times-Roman'" font-size="7.9998">1988;</text>
<text transform="matrix(1 0 0 1 294.9771 204.3901)" font-family="'Times-Roman'" font-size="7.9998">Reigeluth &amp;</text>
<text transform="matrix(1 0 0 1 299.9771 214.3882)"><tspan x="0" y="0" font-family="'Times-Roman'" font-size="7.9998">Sch</tspan><tspan x="12" y="0" font-family="'Times-Roman'" font-size="7.9998">w</tspan><tspan x="17.721" y="0" font-family="'Times-Roman'" font-size="7.9998">artz,</tspan></text>
<text transform="matrix(1 0 0 1 299.9771 224.3853)" font-family="'Times-Roman'" font-size="7.9998">1989;</text>
<text transform="matrix(1 0 0 1 294.9771 234.3823)" font-family="'Times-Roman'" font-size="7.9998">Simons, 1993;</text>
<text transform="matrix(1 0 0 1 294.9771 244.3804)"><tspan x="0" y="0" font-family="'Times-Roman'" font-size="7.9998">Steinbe</tspan><tspan x="23.995" y="0" font-family="'Times-Roman'" font-size="7.9998">r</tspan><tspan x="26.548" y="0" font-family="'Times-Roman'" font-size="7.9998">g,</tspan></text>
<text transform="matrix(1 0 0 1 299.9771 254.3774)" font-family="'Times-Roman'" font-size="7.9998">1989;</text>
<text transform="matrix(1 0 0 1 294.9771 264.3745)"><tspan x="0" y="0" font-family="'Times-Roman'" font-size="7.9998">W</tspan><tspan x="7.255" y="0" font-family="'Times-Roman'" font-size="7.9998">ishart, 1990</tspan></text>
<line fill="none" stroke="#000000" stroke-width="0.502" stroke-miterlimit="2.613" x1="6.674" y1="303.082" x2="342.674" y2="303.082"/>
</svg>
